<svg xmlns="http://www.w3.org/2000/svg" xmlns:xlink="http://www.w3.org/1999/xlink" xmlns:inkscape="http://www.inkscape.org/namespaces/inkscape" version="1.1" width="2100" height="2100" viewBox="0 0 2100 2100">
<defs>
<clipPath id="clip_0">
<path d="M17.8826 50.9285H2197.73V2050.22H17.8826Z"/>
</clipPath>
</defs>
<g clip-path="url(#clip_0)">
<path transform="matrix(1,0,0,1,1060.8892,945.0693)" d="M0 0C98.2192-.6692 169.2517-95.8843 142.3208-190.1526 115.6179-284.4495 5.7522-327.9244-78.1369-277.5013-78.1583-277.4872-78.1796-277.4729-78.201-277.4586-100.1769-264.2603-118.6434-245.3383-131.3079-223.0703-131.2866-223.106-131.2723-223.1344-131.258-223.17-131.2936-223.106-131.3364-223.0348-131.3648-222.9707-144.2856-200.2615-150.9631-174.2063-150.7353-148.1085-150.6784-66.3694-81.5611 1.3811 0 0ZM-114.7137-463.1976C103.1953-541.8613 334.3813-378.4473 332.2671-146.6278 331.4912 50.1169 157.1497 204.8104-38.2711 182.336-133.0164 172.4266-221.6893 119.1915-275.6362 40.777-400.352-138.9109-320.3072-388.8622-114.7137-463.1976Z"/>
<path transform="matrix(1,0,0,1,1683.1196,1509.1482)" d="M0 0C139.1531-189.6829 183.9521-439.8975 121.249-666.4277 62.0198-886.2802-98.7104-1075.1729-305.6992-1169.6975-533.582-1276.0393-810.1082-1263.0332-1026.6863-1135.1565-1420.4248-904.8178-1535.523-390.0225-1276.3811-14.4868-1131.4121 196.0115-887.6685 324.2156-631.9294 322.7847-383.3022 323.4824-145.51 201.4004 0 0ZM283.2251-788.0112C514.3611-134.8745 17.5339 540.822-674.9703 513.6064-937.8638 503.6614-1191.638 381.658-1364.5842 183.5676-1590.9008-72.3777-1664.987-433.2839-1559.9479-758.1403-1438.158-1137.6411-1090.0657-1408.3723-691.8207-1430.7827-261.9038-1457.9697 138.2559-1193.4175 283.2251-788.0112Z"/>
<path transform="matrix(1,0,0,1,1377.4214,1594.0586)" d="M0 0C-227.8826-106.342-504.4088-93.3357-720.9868 34.5408-773.8329 65.4558-821.6312 101.469-864.2072 141.6084L-864.774 141.2957-869.6789 138.6047-874.4058 136.0134-878.9763 133.4648-883.4041 130.9163-887.7111 128.3108-891.8828 125.6199-895.9619 122.7722-899.9343 119.7539-903.7357 116.593-907.3521 113.29-910.7905 109.8372-914.0439 106.2493-917.0978 102.5547-919.9597 98.7744-922.6435 94.9231-925.1422 91.0718-927.4772 87.2278-929.684 83.4119-931.7912 79.6318-933.8344 75.8945-935.7991 72.2637-937.6785 68.811-939.4725 65.5293-941.2095 62.4326-942.8825 59.4995-944.5056 56.7375-946.0574 54.1462-947.5596 51.7188-949.0261 49.4192-950.5068 47.2124-951.9804 45.1052-953.4611 43.0835-954.9703 41.1257-956.508 39.2251-958.0812 37.3599-959.7115 35.5161-961.4058 33.6724-963.1855 31.8-965.1219 29.8494-967.2077 27.7993-969.4786 25.6279-971.9133 23.3713-974.5046 21.022-977.2169 18.6086-980.0289 16.167-982.9048 13.6895-985.788 11.2336-988.6712 8.7988-991.5472 6.3784-994.409 3.9651-995.7427 2.8459C-832.6688-150.897-617.888-248.043-386.1213-261.0852-105.4841-278.8323 162.5193-172.2322 355.092 16.6777L353.9512 18.6016 350.0928 24.9729 346.1631 31.2803 342.2051 37.4666 338.2471 43.4893 334.2532 49.3838 330.2026 55.1855 326.0737 60.9163 321.8665 66.5757 317.5522 72.2068 313.1316 77.8022 308.5613 83.3906 303.8271 88.9646 298.9648 94.489 293.9888 99.9277 288.8989 105.2456 283.6736 110.4636 278.3274 115.5466 272.8813 120.4443 267.3357 125.1428 261.6975 129.6206 255.9883 133.8635 250.2646 137.8572 244.5339 141.6089 238.8032 145.1399 233.0298 148.4929 227.2065 151.6963 222.2583 154.283C157.8894 90.512 82.624 37.7314 0 0Z"/>
</g>
</svg>
