<svg xmlns="http://www.w3.org/2000/svg" xmlns:xlink="http://www.w3.org/1999/xlink" xmlns:inkscape="http://www.inkscape.org/namespaces/inkscape" version="1.1" width="2100" height="2100" viewBox="0 0 2100 2100">
<defs>
<clipPath id="clip_0">
<path d="M158.092 333.941H1941.91V1766.06H158.092Z"/>
</clipPath>
</defs>
<g clip-path="url(#clip_0)">
<path transform="matrix(1,0,0,1,1479.4902,899.7148)" d="M0 0-247.9219 225.2656-165.3164 514.0352-429.4883 345.1016-693.6602 514.0352-611.0547 225.2656-858.9766 0-547.4297 4.4687-430.2344-305.375-429.4883-303.4023-428.7422-305.375-311.5469 4.4687 0 0Z"/>
<path transform="matrix(1,0,0,1,1754.6192,1574.1289)" d="M0 0V-211.5781C-74.0352-250.2031-134.1602-315.3594-164.4102-393.8008-212.0625-512.8008-187.3359-655.3672-101.8398-750.9805-73.2422-783.5859-38.4961-810.7617 0-830.7148V-1049.1367H-1409.2383V-833.9258C-1370.0117-812.8828-1334.8242-784.3164-1306.2852-750.1328-1191.2578-613.8008-1199.7031-408.4922-1325.457-282.0391-1347.3555-259.8242-1372.2266-240.5508-1399.2188-224.9219-1402.5274-223.0039-1405.8672-221.1445-1409.2383-219.3398V0H0ZM187.0391 44.0078V47.5469L186.832 48 186.3906 48.9453 185.9492 49.8828 185.5 50.8047 185.0508 51.7188 184.5937 52.6328 184.1328 53.5352 183.6719 54.4219 183.2109 55.2969 182.7461 56.1641 182.2852 57.0195 181.8242 57.8633 181.3711 58.6836 180.9219 59.4805 180.4805 60.2617 180.0469 61.0273 179.6133 61.7891 179.1875 62.5313 178.7656 63.2578 178.3555 63.9688 177.957 64.6484 177.5664 65.3125 177.1836 65.957 176.8125 66.582 176.4453 67.1953 176.418 67.25 176.1406 67.8086 175.8555 68.3711 175.5703 68.9297 175.2852 69.4922 174.9883 70.0625 174.6836 70.6406 174.375 71.2227 174.0586 71.8008 173.7305 72.3945 173.3906 72.9961 173.043 73.5938 172.6836 74.1953 172.3125 74.8047 171.9297 75.4141 171.5312 76.0352 171.1289 76.6563 170.7187 77.2734 170.2969 77.8945 169.8672 78.5234 169.4336 79.1523 169.0469 79.7188 168.8516 80.0859 168.5508 80.6563 168.2422 81.2422 167.9258 81.8359 167.6016 82.4492 167.2656 83.082 166.9141 83.7344 166.543 84.4141 166.1562 85.1172 165.7578 85.8359 165.3359 86.5781 164.9023 87.3398 164.457 88.1094 163.9961 88.8906 163.5156 89.6875 163.0312 90.4844 162.5391 91.2773 162.0352 92.0781 161.5312 92.8672 161.0234 93.6523 160.5156 94.4219 160.0195 95.1758 159.5234 95.9102 159.0352 96.6289 158.5508 97.332 158.0781 98.0195 157.6016 98.6992 157.5352 98.7969 157.5234 98.8125 157.3711 99.0859 157.0937 99.5781 156.8125 100.0703 156.5312 100.5625 156.2461 101.0625 155.9609 101.5586 155.6758 102.0508 155.3867 102.5469 155.0937 103.0469 154.8008 103.5391 154.5117 104.0273 154.2187 104.5117 153.9219 104.9961 153.6172 105.4805 153.3125 105.9648 153.0078 106.4414 152.6953 106.9141 152.3789 107.3867 152.0586 107.8516 151.7344 108.3125 151.4023 108.7734 151.0703 109.2227 150.7305 109.6758 150.3828 110.1289 150.0312 110.582 149.6641 111.0352 149.2891 111.4961 148.9102 111.957 148.5234 112.4219 148.125 112.8984 147.7187 113.3789 147.3086 113.8633 146.8984 114.3477 146.4883 114.832 146.0742 115.3164 145.6641 115.8008 145.2578 116.2813 144.8594 116.7539 144.457 117.2227 144.0625 117.6836 143.6758 118.1328 143.2891 118.582 142.9102 119.0195 142.5352 119.4492 142.1641 119.8672 141.793 120.2852 141.4219 120.6914 141.0469 121.0977 140.6719 121.5039 140.2852 121.9102 139.8867 122.3242 139.4844 122.7383 139.0742 123.1523 138.6484 123.5781 138.2109 124.0156 137.7617 124.4609 137.3086 124.9063 136.8437 125.3594 136.3711 125.8281 135.8867 126.3008 135.4023 126.7813 134.9102 127.2695 134.4258 127.7578 133.9375 128.25 133.4453 128.75 132.9609 129.2461 132.4805 129.7383 132.0078 130.2305 131.543 130.7109 131.0859 131.1914 130.6289 131.6641 130.1758 132.1406 129.7266 132.6055 129.2812 133.0664 128.8359 133.5234 128.3906 133.9766 127.9453 134.4297 127.5 134.875 127.0625 135.3086 126.625 135.7422 126.1875 136.168 125.7422 136.6016 125.3008 137.0273 124.8594 137.4453 124.4141 137.8672 123.9648 138.2891 123.5195 138.6992 123.0742 139.1133 122.625 139.5234 122.1797 139.9297 121.7383 140.3281 121.3008 140.7148 120.8633 141.1016 120.4219 141.4883 119.9805 141.8672 119.5469 142.2383 119.1133 142.6055 118.6836 142.9648 118.2461 143.3242 117.8086 143.6797 117.3789 144.0273 116.957 144.3633 116.5352 144.6953 116.1133 145.0195 115.6992 145.3398 115.2852 145.6562 114.8789 145.9609 114.4805 146.2578 114.0742 146.5586 113.6719 146.8516 113.2656 147.1445 112.8633 147.4336 112.4609 147.7148 112.0547 148 111.6523 148.2812 111.2383 148.5664 110.8164 148.8516 110.3906 149.1367 109.9609 149.4219 109.5195 149.7109 109.0742 150 108.6211 150.293 108.1563 150.5898 107.6836 150.8867 107.2148 151.1875 106.7344 151.4844 106.2539 151.7852 105.7773 152.082 105.2969 152.3789 104.8164 152.6758 104.3398 152.9727 103.8672 153.2617 103.3906 153.5547 102.918 153.8477 102.4453 154.1406 101.9766 154.4258 101.5117 154.7148 101.0469 155 100.582 155.2891 100.1133 155.582 99.6445 155.8711 99.1836 156.1562 98.7227 156.4453 98.5742 156.5391 98.543 156.5586 98.5234 156.5703 98.0195 156.9062 97.5117 157.2344 97.0117 157.5625 96.5117 157.8789 96.0234 158.1914 95.5469 158.4883 95.0781 158.7852 94.6055 159.0781 94.1406 159.3711 93.6875 159.6523 93.2305 159.9375 92.7773 160.2227 92.3281 160.5039 91.8867 160.7812 91.4453 161.0586 91 161.3398 90.5625 161.6172 90.1211 161.8984 89.6758 162.1797 89.2344 162.4609 88.7852 162.7461 88.3359 163.0312 87.8906 163.3125 87.4453 163.5937 86.9922 163.875 86.543 164.1562 86.0898 164.4375 85.6328 164.7227 85.1641 165.0078 84.7031 165.293 84.25 165.5703 83.8008 165.8437 83.3516 166.1172 82.9023 166.3867 82.4531 166.6602 82.0078 166.9297 81.5586 167.207 81.1055 167.4844 80.6523 167.7656 80.1875 168.0508 79.7188 168.3437 79.2383 168.6406 78.75 168.9492 78.25 169.2617 77.7383 169.5859 77.2148 169.9141 76.6836 170.2461 76.1406 170.5859 75.5898 170.9336 75.0273 171.2852 74.4648 171.6367 73.8984 171.9844 73.3359 172.3281 72.7695 172.6719 72.2031 173.0117 71.6445 173.3477 71.0938 173.6719 70.5508 173.9922 70.0078 174.3086 69.4688 174.6211 68.9336 174.9258 68.4102 175.2266 67.8906 175.5195 67.375 175.8047 66.8594 176.0898 66.3398 176.3711 65.832 176.6484 65.3203 176.918 64.8047 177.1875 64.293 177.4492 63.793 177.6992 63.2891 177.9414 62.793 178.1797 62.2969 178.4062 61.8203 178.6172 61.3594 178.8164 60.9023 179.0078 60.4609 179.1875 60.0273 179.3555 59.6094 179.5195 59.1992 179.6719 58.7969 179.8203 58.4063 179.9648 58.0313 180.0977 57.6563 180.2344 57.2852 180.3633 56.918 180.4922 56.5547 180.6211 56.1992 180.7422 55.8398 180.8672 55.4805 180.9883 55.1172 181.1133 54.75 181.2344 54.3789 181.3594 54 181.4844 53.6172 181.6094 53.2383 181.7305 52.8555 181.8516 52.4688 181.9727 52.082 182.0937 51.6992 182.2109 51.3125 182.3281 50.9336 182.4453 50.5586 182.5625 50.1875 182.6758 49.8164 182.7891 49.4531 182.9023 49.0859 183.0156 48.7266 183.1289 48.3672 183.2383 48.0039 183.3555 47.6367 183.4687 47.2656 183.5859 46.8867 183.707 46.5 183.8281 46.1055 183.9492 45.7031 184.0742 45.2891 184.2031 44.875 184.332 44.4531 184.457 44.0156 184.5898 43.5742 184.7227 43.1211 184.8516 42.6641 184.9844 42.1992 185.1133 41.7305 185.2383 41.25 185.3672 40.7617 185.4922 40.2734 185.6133 39.7813 185.7305 39.2773 185.8516 38.7813 185.9609 38.2852 186.0703 37.7891 186.1758 37.2891 186.2773 36.793 186.375 36.3047 186.4727 35.8164 186.5625 35.3281 186.6523 34.832 186.7422 34.332 186.832 33.8398 186.9219 33.3359 187.0078 32.8242 187.0937 32.3125 187.1797 31.7969 187.2617 31.2813 187.3437 30.7695 187.4258 30.25 187.5 29.7383 187.5742 29.2227 187.6484 28.707 187.7148 28.1992 187.7773 27.6914 187.8398 27.1875 187.8984 26.6875 187.9531 26.1992 188.0039 25.7227 188.0508 25.2539 188.0937 24.7891 188.1367 24.3359 188.1758 23.8906 188.2148 23.457 188.25 23.0313 188.2852 22.6133 188.3203 22.1953 188.3555 21.7852 188.3906 21.3828 188.4297 20.9805 188.4687 20.5859 188.5078 20.1953 188.5508 19.8086 188.5977 19.4219 188.6445 19.0352 188.6953 18.6367 188.75 18.2383 188.8047 17.8359 188.8633 17.4258 188.9219 17.0156 188.9844 16.5977 189.0508 16.1719 189.1211 15.7461 189.1914 15.3086 189.2617 14.875 189.332 14.4414 189.4062 14.0039 189.4805 13.5586 189.5586 13.1094 189.6367 12.6641 189.7148 12.2187 189.7969 11.7695 189.8789 11.3203 189.9609 10.8711 190.043 10.4102 190.1289 9.9375 190.2187 9.457 190.3125 8.9609 190.4062 8.4531 190.5 7.9297 190.5977 7.3867 190.6992 6.832 190.7969 6.2617 190.8945 5.668 190.9922 5.0586 191.0898 4.4258 191.1875 3.7695 191.2812 3.1016 191.3711 2.4141 191.4531 1.707 191.5312 .9805 191.6016 .2344 191.6641 0 191.6797V189.8984 187.0391H-1409.2383V189.8984 191.6797L-1409.4727 191.6641-1410.2188 191.6016-1410.9453 191.5312-1411.6524 191.4531-1412.3399 191.3711-1413.0078 191.2812-1413.6641 191.1875-1414.2969 191.0898-1414.9063 190.9922-1415.5 190.8945-1416.0703 190.7969-1416.625 190.6992-1417.168 190.5977-1417.6914 190.5-1418.1992 190.4062-1418.6953 190.3125-1419.1758 190.2187-1419.6484 190.1289-1420.1094 190.043-1420.5586 189.9609-1421.0078 189.8789-1421.457 189.7969-1421.9024 189.7148-1422.3477 189.6367-1422.7969 189.5586-1423.2422 189.4805-1423.6797 189.4062-1424.1133 189.332-1424.5469 189.2617-1424.9844 189.1914-1425.4102 189.1211-1425.8359 189.0508-1426.2539 188.9844-1426.6641 188.9219-1427.0742 188.8633-1427.4766 188.8047-1427.875 188.75-1428.2734 188.6953-1428.6602 188.6445-1429.0469 188.5977-1429.4336 188.5508-1429.8242 188.5078-1430.2188 188.4687-1430.6211 188.4297-1431.0234 188.3906-1431.4336 188.3555-1431.8516 188.3203-1432.2695 188.2852-1432.6953 188.25-1433.1289 188.2148-1433.5742 188.1758-1434.0274 188.1367-1434.4922 188.0937-1434.9609 188.0508-1435.4375 188.0039-1435.9258 187.9531-1436.4258 187.8984-1436.9297 187.8398-1437.4375 187.7773-1437.9453 187.7148-1438.4609 187.6484-1438.9766 187.5742-1439.4883 187.5-1440.0078 187.4258-1440.5195 187.3437-1441.0352 187.2617-1441.5508 187.1797-1442.0625 187.0937-1442.5742 187.0078-1443.0781 186.9219-1443.5703 186.832-1444.0703 186.7422-1444.5664 186.6523-1445.0547 186.5625-1445.543 186.4727-1446.0313 186.375-1446.5274 186.2773-1447.0274 186.1758-1447.5234 186.0703-1448.0195 185.9609-1448.5156 185.8516-1449.0195 185.7305-1449.5117 185.6133-1450 185.4922-1450.4883 185.3672-1450.9688 185.2383-1451.4375 185.1133-1451.9024 184.9844-1452.3594 184.8516-1452.8125 184.7227-1453.2539 184.5898-1453.6914 184.457-1454.1133 184.332-1454.5274 184.2031-1454.9414 184.0742-1455.3438 183.9492-1455.7383 183.8281-1456.125 183.707-1456.5039 183.5859-1456.875 183.4687-1457.2422 183.3555-1457.6055 183.2383-1457.9649 183.1289-1458.3242 183.0156-1458.6914 182.9023-1459.0547 182.7891-1459.4258 182.6758-1459.7969 182.5625-1460.1719 182.4453-1460.5508 182.3281-1460.9375 182.2109-1461.3203 182.0937-1461.707 181.9727-1462.0938 181.8516-1462.4766 181.7305-1462.8555 181.6094-1463.2383 181.4844-1463.6172 181.3594-1463.9883 181.2344-1464.3555 181.1133-1464.7188 180.9883-1465.0781 180.8672-1465.4375 180.7422-1465.793 180.6211-1466.1563 180.4922-1466.5234 180.3633-1466.8945 180.2344-1467.2695 180.0977-1467.6445 179.9648-1468.0352 179.8203-1468.4375 179.6719-1468.8477 179.5195-1469.2656 179.3555-1469.6992 179.1875-1470.1406 179.0078-1470.5977 178.8164-1471.0586 178.6172-1471.5352 178.4062-1472.0313 178.1797-1472.5274 177.9414-1473.0313 177.6992-1473.5313 177.4492-1474.043 177.1875-1474.5586 176.918-1475.0703 176.6484-1475.5781 176.3711-1476.0977 176.0898-1476.6133 175.8047-1477.1289 175.5195-1477.6484 175.2266-1478.1719 174.9258-1478.707 174.6211-1479.2461 174.3086-1479.7891 173.9922-1480.332 173.6719-1480.8828 173.3477-1481.4414 173.0117-1482.0078 172.6719-1482.5742 172.3281-1483.1367 171.9844-1483.7031 171.6367-1484.2656 171.2852-1484.8281 170.9336-1485.3789 170.5859-1485.9219 170.2461-1486.4531 169.9141-1486.9766 169.5859-1487.4883 169.2617-1487.9883 168.9492-1488.4766 168.6406-1488.957 168.3437-1489.4258 168.0508-1489.8906 167.7656-1490.3438 167.4844-1490.7969 167.207-1491.2461 166.9297-1491.6914 166.6602-1492.1406 166.3867-1492.5899 166.1172-1493.0391 165.8437-1493.4883 165.5703-1493.9414 165.293-1494.4024 165.0078-1494.8711 164.7227-1495.3281 164.4375-1495.7813 164.1562-1496.2305 163.875-1496.6836 163.5937-1497.1289 163.3125-1497.5742 163.0312-1498.0234 162.7461-1498.4727 162.4609-1498.9141 162.1797-1499.3594 161.8984-1499.8008 161.6172-1500.2383 161.3398-1500.6836 161.0586-1501.125 160.7812-1501.5664 160.5039-1502.0156 160.2227-1502.4688 159.9375-1502.9258 159.6523-1503.3789 159.3711-1503.8438 159.0781-1504.3164 158.7852-1504.7852 158.4883-1505.2617 158.1914-1505.75 157.8789-1506.25 157.5625-1506.75 157.2344-1507.2578 156.9062-1507.7617 156.5703-1507.7813 156.5586-1507.9609 156.4453-1508.4219 156.1562-1508.8828 155.8711-1509.3516 155.582-1509.8203 155.2891-1510.2852 155-1510.75 154.7148-1511.2149 154.4258-1511.6836 154.1406-1512.1563 153.8477-1512.6289 153.5547-1513.1055 153.2617-1513.5781 152.9727-1514.0547 152.6758-1514.5352 152.3789-1515.0156 152.082-1515.4922 151.7852-1515.9727 151.4844-1516.4531 151.1875-1516.9219 150.8867-1517.3945 150.5898-1517.8594 150.293-1518.3125 150-1518.7578 149.7109-1519.1992 149.4219-1519.6289 149.1367-1520.0547 148.8516-1520.4766 148.5664-1520.8906 148.2812-1521.293 148-1521.6992 147.7148-1522.1016 147.4336-1522.5039 147.1445-1522.9102 146.8516-1523.3125 146.5586-1523.7188 146.2578-1524.1172 145.9609-1524.5234 145.6562-1524.9375 145.3398-1525.3516 145.0195-1525.7734 144.6953-1526.1953 144.3633-1526.6172 144.0273-1527.0469 143.6797-1527.4844 143.3242-1527.9219 142.9648-1528.3516 142.6055-1528.7852 142.2383-1529.2188 141.8672-1529.6602 141.4883-1530.1016 141.1016-1530.5391 140.7148-1530.9766 140.3281-1531.418 139.9297-1531.8633 139.5234-1532.3125 139.1133-1532.7578 138.6992-1533.2031 138.2891-1533.6524 137.8672-1534.0977 137.4453-1534.5391 137.0273-1534.9805 136.6016-1535.4258 136.168-1535.8633 135.7422-1536.3008 135.3086-1536.7383 134.875-1537.1836 134.4297-1537.6289 133.9766-1538.0742 133.5234-1538.5195 133.0664-1538.9649 132.6055-1539.4141 132.1406-1539.8672 131.6641-1540.3242 131.1914-1540.7813 130.7109-1541.2461 130.2305-1541.7188 129.7383-1542.1992 129.2461-1542.6836 128.75-1543.1758 128.25-1543.6641 127.7578-1544.1484 127.2695-1544.6406 126.7813-1545.125 126.3008-1545.6094 125.8281-1546.082 125.3594-1546.5469 124.9063-1547 124.4609-1547.4492 124.0156-1547.8867 123.5781-1548.3125 123.1523-1548.7227 122.7383-1549.125 122.3242-1549.5234 121.9102-1549.9102 121.5039-1550.2852 121.0977-1550.6602 120.6914-1551.0313 120.2852-1551.4024 119.8672-1551.7734 119.4492-1552.1484 119.0195-1552.5274 118.582-1552.9141 118.1328-1553.3008 117.6836-1553.6953 117.2227-1554.0977 116.7539-1554.4961 116.2813-1554.9024 115.8008-1555.3125 115.3164-1555.7266 114.832-1556.1367 114.3477-1556.5469 113.8633-1556.957 113.3789-1557.3633 112.8984-1557.7617 112.4219-1558.1484 111.957-1558.5274 111.4961-1558.9024 111.0352-1559.2695 110.582-1559.6211 110.1289-1559.9688 109.6758-1560.3086 109.2227-1560.6406 108.7734-1560.9727 108.3125-1561.2969 107.8516-1561.6172 107.3867-1561.9336 106.9141-1562.2461 106.4414-1562.5508 105.9648-1562.8555 105.4805-1563.1602 104.9961-1563.457 104.5117-1563.75 104.0273-1564.0391 103.5391-1564.332 103.0469-1564.625 102.5469-1564.9141 102.0508-1565.1992 101.5586-1565.4844 101.0625-1565.7695 100.5625-1566.0508 100.0703-1566.332 99.5781-1566.6094 99.0859-1566.7734 98.7969-1566.7813 98.7813-1566.8399 98.6992-1567.3164 98.0195-1567.7891 97.332-1568.2734 96.6289-1568.7617 95.9102-1569.2578 95.1758-1569.7539 94.4219-1570.2617 93.6523-1570.7695 92.8672-1571.2734 92.0781-1571.7774 91.2773-1572.2695 90.4844-1572.7539 89.6875-1573.2344 88.8906-1573.6953 88.1094-1574.1406 87.3398-1574.5742 86.5781-1574.9961 85.8359-1575.3945 85.1172-1575.7813 84.4141-1576.1524 83.7344-1576.5039 83.082-1576.8399 82.4492-1577.1641 81.8359-1577.4805 81.2422-1577.7891 80.6563-1578.0899 80.0859-1578.2852 79.7227V79.7188L-1578.6719 79.1523-1579.1055 78.5234-1579.5352 77.8945-1579.957 77.2734-1580.3672 76.6563-1580.7695 76.0352-1581.168 75.4141-1581.5508 74.8047-1581.9219 74.1953-1582.2813 73.5938-1582.6289 72.9961-1582.9688 72.3945-1583.2969 71.8008-1583.6133 71.2227-1583.9219 70.6406-1584.2266 70.0625-1584.5234 69.4922-1584.8086 68.9297-1585.0938 68.3711-1585.3789 67.8086-1585.6563 67.25-1585.6836 67.1953-1586.0508 66.582-1586.4219 65.957-1586.8047 65.3125-1587.1953 64.6484-1587.5938 63.9688-1588.0039 63.2578-1588.4258 62.5313-1588.8516 61.7891-1589.2852 61.0273-1589.7188 60.2617-1590.1602 59.4805-1590.6094 58.6836-1591.0625 57.8633-1591.5234 57.0195-1591.9844 56.1641-1592.4492 55.2969-1592.9102 54.4219-1593.3711 53.5352-1593.832 52.6328-1594.2891 51.7188-1594.7383 50.8047-1595.1875 49.8828-1595.6289 48.9453-1596.0703 48-1596.2774 47.5469V44.0078 0-334.1914-344.3633L-1596.1719-344.3594-1595.1367-344.3047-1594.1211-344.2422-1593.1172-344.1758-1592.1172-344.1016-1591.125-344.0273-1590.1289-343.9414-1589.1367-343.8555-1588.1445-343.7617-1587.1406-343.668-1586.1328-343.5664-1585.1172-343.4648-1584.1055-343.3633-1583.1094-343.2617-1582.1094-343.1641-1581.1133-343.0703-1580.1328-342.9805-1579.1602-342.8945-1578.1992-342.8125-1577.25-342.7344-1576.3242-342.6602-1575.418-342.5898-1574.5195-342.5273-1573.6406-342.4648-1573.1836-342.4336-1572.8125-342.5703-1572.0195-342.8594-1571.2266-343.1445-1570.4492-343.4297-1569.6875-343.707-1568.9414-343.9766-1568.2149-344.2422-1567.5078-344.5-1566.8164-344.75-1566.1445-344.9961-1565.4883-345.2383-1564.8477-345.4805-1564.2227-345.7109-1563.6211-345.9414-1563.0313-346.1602-1562.4531-346.3789-1561.8945-346.5937-1561.3516-346.7969-1560.8164-347-1560.2891-347.1992-1559.7656-347.3945-1559.2461-347.5859-1558.7383-347.7695-1558.2344-347.9492-1557.7422-348.125-1557.2539-348.2969-1556.7695-348.4687-1556.2969-348.6328-1555.8242-348.793-1555.3555-348.9531-1554.8984-349.1094-1554.4492-349.2578-1554.0039-349.4102-1553.5625-349.5547-1553.1289-349.6953-1552.6992-349.8359-1552.2774-349.9727-1551.8555-350.1094-1551.4375-350.2383-1551.0313-350.3672-1550.625-350.4961-1550.2227-350.6211-1549.8203-350.7461-1549.4141-350.8711-1549.0078-350.9961-1548.6016-351.1211-1548.1914-351.2461-1547.7734-351.375-1547.3516-351.5078-1546.9258-351.6367-1546.4922-351.7734-1546.0586-351.9141-1545.6133-352.0586-1545.168-352.2031-1544.7188-352.3555-1544.2656-352.5078-1543.8086-352.668-1543.3399-352.8359-1542.8594-353.0078-1542.3828-353.1875-1541.9024-353.3672-1541.418-353.5547-1540.9297-353.75-1540.4375-353.9492-1539.9375-354.1562-1539.4414-354.3633-1538.9414-354.5781-1538.4414-354.793-1537.9375-355.0117-1537.4336-355.2344-1536.9336-355.457-1536.4258-355.6797-1535.9102-355.9062-1535.4024-356.1289-1534.8906-356.3516-1534.3711-356.5742-1533.8516-356.7969-1533.3242-357.0156-1532.8008-357.2305-1532.2734-357.4492-1531.7344-357.668-1531.1875-357.8867-1530.6367-358.1094-1530.0703-358.3398-1529.5-358.5703-1528.918-358.8125-1528.3281-359.0547-1527.7305-359.3047-1527.1211-359.5586-1526.5039-359.8242-1525.8828-360.0937-1525.2617-360.3633-1524.6367-360.6406-1524.0078-360.918-1523.375-361.1992-1522.7422-361.4844-1522.1055-361.7734-1521.4688-362.0664-1520.8281-362.3633-1520.1875-362.6641-1519.5391-362.9766-1518.8867-363.3008-1518.2383-363.6289-1517.5899-363.9687-1516.9336-364.3203-1516.2774-364.6875-1515.6211-365.0664-1514.9688-365.457-1514.3164-365.8594-1513.6758-366.2734-1513.0391-366.6914-1512.418-367.1133-1511.8047-367.5391-1511.1914-367.9727-1510.5899-368.4062-1509.9961-368.8398-1509.4102-369.2695-1508.832-369.6953-1508.2617-370.1133-1507.6875-370.5273-1507.1211-370.9336-1506.5547-371.3359-1505.9883-371.7305-1505.4297-372.1133-1504.8711-372.4844-1504.3164-372.8516-1503.7578-373.207-1503.2031-373.5586-1502.6484-373.8984-1502.1055-374.2305-1501.5586-374.5547-1501.0156-374.8789-1500.4766-375.1914-1499.9375-375.5039-1499.4024-375.8125-1498.8672-376.1211-1498.3281-376.4297-1497.793-376.7383-1497.2578-377.0508-1496.7188-377.3633-1496.1758-377.6836-1495.6367-378.0039-1495.0899-378.3281-1494.543-378.6562-1494.0039-378.9844-1493.4688-379.3086-1492.9336-379.6328-1492.3984-379.9609-1491.8711-380.2812-1491.3477-380.5977-1490.8281-380.9102-1490.3125-381.2187-1489.7969-381.5273-1489.2813-381.832-1488.7695-382.1328-1488.2617-382.4336-1487.75-382.7344-1487.2383-383.0312-1486.7266-383.332-1486.2109-383.6328-1485.6953-383.9375-1485.1758-384.2461-1484.6484-384.5586-1484.1289-384.875-1483.6055-385.1953-1483.082-385.5234-1482.5625-385.8555-1482.0469-386.1914-1481.5313-386.5312-1481.0117-386.8828-1480.4961-387.2383-1479.9727-387.6016-1479.4492-387.9766-1478.9219-388.3555-1478.3906-388.7422-1477.8594-389.1367-1477.3164-389.543-1476.7617-389.9609-1476.1953-390.3945-1475.6094-390.8477-1475.0156-391.3164-1474.4063-391.8086-1473.7813-392.3242-1473.1445-392.8633-1472.5078-393.4141-1471.875-393.9766-1471.2383-394.5625-1470.6055-395.1602-1469.9766-395.7656-1469.3477-396.3828-1468.7266-397.0078-1468.1133-397.6328-1467.5117-398.2578-1466.9219-398.875-1466.3399-399.4883-1465.7617-400.1055-1465.1914-400.707-1464.6328-401.2969-1464.0664-401.8906-1463.4961-402.4844-1462.9258-403.0703-1462.3477-403.6562-1461.7656-404.2461-1461.1719-404.8359-1460.5703-405.4336-1459.9531-406.0391-1459.332-406.6484-1458.7031-407.2617-1458.0664-407.8828-1457.4336-408.5-1456.8047-409.1133-1456.1836-409.7227-1455.5664-410.3242-1454.9609-410.918-1454.3711-411.5039-1453.793-412.0742-1453.2305-412.6328-1452.6836-413.1758-1452.1484-413.707-1451.6328-414.2187-1451.1289-414.7187-1450.6289-415.2109-1450.1406-415.6953-1449.6563-416.1719-1449.1797-416.6445-1448.6992-417.1133-1448.2188-417.582-1447.7461-418.043-1447.2617-418.5117-1446.7695-418.9922-1446.2617-419.4883-1445.7422-420-1445.2149-420.5234-1444.6758-421.0586-1444.1289-421.6133-1443.5742-422.1836-1443.0156-422.7656-1442.4531-423.3633-1441.8867-423.9766-1441.3242-424.5937-1440.7656-425.2187-1440.207-425.8516-1439.6563-426.4805-1439.1172-427.1094-1438.5938-427.7344-1438.0781-428.3477-1437.5742-428.9648-1437.0742-429.582-1436.5781-430.2031-1436.0899-430.8281-1435.6055-431.4609-1435.125-432.1016-1434.6445-432.7617-1434.1563-433.4492-1433.6602-434.1641-1433.1602-434.918-1432.6563-435.6992-1432.1563-436.4961-1431.6484-437.3281-1431.1406-438.1797-1430.6367-439.043-1430.1406-439.9023-1429.6563-440.7539-1429.1836-441.5937-1428.7227-442.4219-1428.2734-443.2266-1427.832-444.0195-1427.4024-444.793-1426.9844-445.5469-1426.5742-446.2852-1426.168-447.0117-1425.7695-447.7305-1425.375-448.4375-1424.9844-449.1406-1424.5859-449.8477-1424.1875-450.5664-1423.7813-451.2969-1423.3672-452.0391-1422.9453-452.7969-1422.5156-453.5859-1422.0781-454.3867-1421.6406-455.1953-1421.2031-456.0078-1420.7695-456.8242-1420.3359-457.6445-1419.9102-458.457-1419.4805-459.2617-1419.0586-460.0586-1418.6406-460.8398-1418.2227-461.6094-1417.8047-462.3672-1417.6524-462.6406C-1411.8086-502.7148-1412.9805-543.8164-1421.1563-583.4805-1422.7149-591.0195-1424.5274-598.5039-1426.582-605.9219L-1426.8125-606.2578-1427.3711-607.0742-1427.9492-607.9062-1428.5313-608.7344-1429.1133-609.5469-1429.6914-610.3516-1430.2617-611.1289-1430.8125-611.8789-1431.3516-612.5977-1431.8672-613.2852-1432.3711-613.9375-1432.8633-614.5664-1432.9414-614.668-1432.9531-614.6797-1432.9766-614.7031-1433.6055-615.3711-1434.2422-616.0391-1434.8867-616.707-1435.5391-617.375-1436.1953-618.0391-1436.8438-618.6914-1437.5039-619.3398-1438.1641-619.9844-1438.8125-620.6094-1439.457-621.2227-1440.1055-621.832-1440.7461-622.4297-1441.3828-623.0156-1442.0117-623.5898-1442.6367-624.1562-1443.25-624.707-1443.8555-625.25-1444.4531-625.7812-1445.0391-626.3008-1445.6172-626.8164-1446.1953-627.3281-1446.7695-627.8398-1447.3438-628.3516-1447.918-628.8672-1448.4883-629.3828-1449.0508-629.8945-1449.625-630.418-1450.2031-630.9453-1450.7852-631.4805-1451.3711-632.0195-1451.9609-632.5664-1452.5625-633.125-1453.1602-633.6836-1453.75-634.2383-1454.3438-634.8008-1454.9375-635.3711-1455.5352-635.9453-1456.1289-636.5273-1456.7227-637.1094-1457.3047-637.6953-1457.8945-638.2891-1458.4766-638.8828-1459.0586-639.4805-1459.6367-640.0781-1460.2149-640.6797-1460.7852-641.2812-1461.3594-641.8867-1461.9336-642.5-1462.5078-643.1094-1463.082-643.7227-1463.6563-644.3398-1464.2344-644.9531-1464.8086-645.5664-1465.3867-646.1719-1465.9649-646.7773-1466.5508-647.3828-1467.1406-647.9883-1467.7266-648.5859-1468.3164-649.1797-1468.9063-649.7656-1469.4961-650.3477-1470.0859-650.9219-1470.6719-651.4883-1471.2578-652.0508-1471.8399-652.6094-1472.4258-653.1641-1473.0117-653.7187-1473.5938-654.2656-1474.1797-654.8125-1474.7695-655.3672-1475.3672-655.9219-1475.9727-656.4883-1476.5859-657.0547-1477.207-657.625-1477.832-658.1953-1478.4649-658.7695-1479.0977-659.3359-1479.7305-659.8984-1480.3633-660.4531-1481.0039-661.0078-1481.6445-661.5508-1482.2891-662.0859-1482.9375-662.6133-1483.5859-663.1289-1484.2344-663.6328-1484.8789-664.1172-1485.5234-664.5898-1486.1602-665.043-1486.793-665.4766-1487.4219-665.8945-1488.0469-666.2969-1488.668-666.6836-1489.2813-667.0586-1489.8906-667.418-1490.4883-667.7695-1491.0859-668.1094-1491.6719-668.4414-1492.2383-668.7617-1492.7969-669.0742-1493.3438-669.3828-1493.8867-669.6875-1494.4258-669.9922-1494.9531-670.293-1495.4609-670.5898-1495.9649-670.8906-1496.4609-671.1875-1496.9492-671.4883-1497.4336-671.7891-1497.9258-672.0977-1498.4219-672.4141-1498.9102-672.7305-1499.3984-673.0508-1499.8828-673.375-1500.3711-673.6992-1500.8555-674.0273-1501.3477-674.3594-1501.8399-674.6992-1502.3281-675.0312-1502.8164-675.3672-1503.3047-675.707-1503.793-676.0391-1504.2852-676.3789-1504.7774-676.7148-1505.2734-677.0508-1505.7695-677.3867-1506.2695-677.7187-1506.7813-678.0586-1507.3008-678.3945-1507.8203-678.7266-1508.3359-679.0547-1508.8555-679.375-1509.3828-679.6992-1509.9102-680.0156-1510.4414-680.3281-1510.9805-680.6445-1511.5274-680.9609-1512.0664-681.2656-1512.6055-681.5703-1513.1524-681.8711-1513.6953-682.1719-1514.2305-682.4648-1514.7656-682.7578-1515.3008-683.0547-1515.8359-683.3477-1516.3672-683.6406-1516.8906-683.9336-1517.4102-684.2266-1517.9336-684.5234-1518.4609-684.8242-1518.9883-685.1289-1519.5117-685.4375-1520.0352-685.7461-1520.5547-686.0586-1521.0742-686.375-1521.5899-686.6914-1522.1055-687.0117-1522.6211-687.332-1523.1367-687.6562-1523.6484-687.9766-1524.168-688.3047-1524.6953-688.6328-1525.2188-688.9609-1525.7422-689.2852-1526.2734-689.6172-1526.8086-689.9453-1527.3438-690.2734-1527.5156-690.375-1527.5234-690.3789-1528.0391-690.5742-1528.7852-690.8437-1529.5391-691.1133-1530.3008-691.375-1531.0781-691.6367-1531.8867-691.9062-1532.7266-692.1875-1533.6055-692.4805-1534.5195-692.7891-1535.4727-693.1133-1536.457-693.457-1537.4688-693.8164-1538.5039-694.1953-1539.5625-694.5859-1540.6367-694.9844-1541.7149-695.3906-1542.7969-695.7969-1543.8867-696.2031-1544.9688-696.6016-1546.0586-696.9961-1547.1445-697.3867-1548.2383-697.7656-1549.3281-698.1445-1550.4219-698.5156-1551.5234-698.8867-1552.6289-699.2539-1553.7461-699.6172-1554.8828-699.9883-1556.0547-700.3633-1557.2461-700.7422-1558.4766-701.1289-1559.7266-701.5195-1561.0039-701.9219-1562.3164-702.3359-1563.6484-702.7578-1564.9922-703.1875-1566.3594-703.6211-1567.7422-704.0586-1569.1172-704.4961-1570.4844-704.9258-1571.8555-705.3555-1573.2305-705.7812-1574.6055-706.1992-1575.9766-706.6016-1577.332-706.9883-1578.6875-707.3633-1580.0391-707.7266-1581.3906-708.0742-1582.75-708.4141-1584.1328-708.7461-1585.5547-709.0781-1587.0117-709.4102-1588.5039-709.7422-1590.0274-710.0781-1591.5938-710.4219-1593.207-710.7734-1594.8672-711.1328-1596.2774-711.4414V-717.9805-1031.1992-1049.1367-1091.1953L-1596.1914-1091.4649-1596.0039-1092.0625-1595.8203-1092.6641-1595.6328-1093.2734-1595.4453-1093.8828-1595.2578-1094.4961-1595.0703-1095.1094-1594.8828-1095.7227-1594.6953-1096.3281-1594.5078-1096.9336-1594.3164-1097.5352-1594.1289-1098.1367-1593.9375-1098.7305-1593.7422-1099.3203-1593.5469-1099.9102-1593.3477-1100.4922-1593.1445-1101.0703-1592.9453-1101.6406-1592.7383-1102.2031-1592.5313-1102.7695-1592.3164-1103.3359-1592.0938-1103.9063-1591.8672-1104.4766-1591.6367-1105.043-1591.4063-1105.6016-1591.1719-1106.1563-1590.9336-1106.707-1590.6914-1107.25-1590.4492-1107.7891-1590.207-1108.3164-1589.9688-1108.8281-1589.7305-1109.332-1589.4883-1109.8281-1589.25-1110.3125-1589.0117-1110.7852-1588.7734-1111.2539-1588.5313-1111.7188-1588.2852-1112.1836-1588.0352-1112.6445-1587.7774-1113.1133-1587.5117-1113.5859-1587.2422-1114.0664-1586.9688-1114.543-1586.6875-1115.0274-1586.3984-1115.5156-1586.1016-1116.0156-1585.8008-1116.5156-1585.4922-1117.0195-1585.1797-1117.5274-1584.8672-1118.0352-1584.5469-1118.5469-1584.2266-1119.0586-1583.9024-1119.5703-1583.5781-1120.0781-1583.2539-1120.5781-1582.9297-1121.0781-1582.6055-1121.5781-1582.2813-1122.0742-1581.957-1122.5703-1581.6289-1123.0664-1581.3047-1123.5586-1580.9805-1124.0508-1580.6524-1124.543-1580.3242-1125.043-1579.9961-1125.5469-1579.668-1126.0547-1579.3359-1126.5625-1579.0078-1127.0781-1578.6758-1127.6016-1578.3399-1128.1328-1578.0078-1128.668-1577.6719-1129.2109-1577.3359-1129.7539-1577-1130.3008-1576.6602-1130.8672-1576.3047-1131.4492-1575.9492-1132.043-1575.5899-1132.6445-1575.2188-1133.2617-1574.8477-1133.8867-1574.4805-1134.5117-1574.1094-1135.1406-1573.7422-1135.7617-1573.3789-1136.3789-1573.0234-1136.9883-1572.6719-1137.5899-1572.3242-1138.1836-1571.9805-1138.7734-1571.6406-1139.3555-1571.3008-1139.9297-1570.9649-1140.4961-1570.6328-1141.0586-1570.2969-1141.6211-1569.9609-1142.1758-1569.6211-1142.7305-1569.2774-1143.2852-1568.9258-1143.8438-1568.5664-1144.4024-1568.1992-1144.9649-1567.8281-1145.5195-1567.4492-1146.0781-1567.1641-1146.4844-1567.1602-1146.4883-1567.0664-1146.6914-1566.8633-1147.1172-1566.6563-1147.5469-1566.4375-1147.9922-1566.2109-1148.4414-1565.9727-1148.9024-1565.7227-1149.3789-1565.4609-1149.8594-1565.1914-1150.3438-1564.9063-1150.8399-1564.6172-1151.332-1564.3164-1151.8281-1564.0078-1152.3203-1563.6914-1152.8164-1563.3672-1153.3047-1563.0352-1153.7891-1562.7031-1154.2656-1562.3672-1154.7344-1562.0274-1155.1914-1561.6836-1155.6484-1561.332-1156.1016-1560.9766-1156.5508-1560.6172-1157.0039-1560.2461-1157.457-1559.8711-1157.9063-1559.4922-1158.3594-1559.1055-1158.8086-1558.7149-1159.2578-1558.3203-1159.707-1557.918-1160.1602-1557.5117-1160.6172-1557.1016-1161.0703-1556.6914-1161.5195-1556.2813-1161.9609-1555.8672-1162.4063-1555.4531-1162.8516-1555.0469-1163.2891-1554.6445-1163.7227-1554.2422-1164.1524-1553.8438-1164.582-1553.4492-1165.0117-1553.0547-1165.4414-1552.6641-1165.8711-1552.2813-1166.2969-1551.8984-1166.7266-1551.5195-1167.1563-1551.1367-1167.5899-1550.7539-1168.0313-1550.375-1168.4688-1549.9961-1168.9063-1549.6094-1169.3477-1549.2188-1169.7969-1548.8242-1170.2461-1548.4258-1170.6992-1548.0156-1171.1602-1547.5938-1171.625-1547.168-1172.0938-1546.7344-1172.5625-1546.293-1173.0274-1545.8438-1173.4961-1545.3828-1173.9688-1544.918-1174.4375-1544.4414-1174.9024-1543.957-1175.3672-1543.4688-1175.8281-1543.0078-1176.25-1542.8711-1176.4375-1542.4961-1176.957-1542.1211-1177.4727-1541.7422-1177.9883-1541.3594-1178.5039-1540.9727-1179.0234-1540.5781-1179.5469-1540.1758-1180.0703-1539.7656-1180.5977-1539.3477-1181.125-1538.9219-1181.6524-1538.4961-1182.1719-1538.0664-1182.6836-1537.6367-1183.1836-1537.207-1183.6719-1536.7813-1184.1484-1536.3633-1184.6094-1535.9492-1185.0586-1535.5391-1185.5-1535.1289-1185.9297-1534.7227-1186.3477-1534.3203-1186.7539-1533.918-1187.1602-1533.5078-1187.5625-1533.0977-1187.9649-1532.6797-1188.3672-1532.25-1188.7774-1531.8125-1189.1914-1531.3633-1189.6133-1530.9024-1190.043-1530.4297-1190.4883-1529.9453-1190.9375-1529.4492-1191.3906-1528.9492-1191.8555-1528.4414-1192.3203-1527.9297-1192.7891-1527.4141-1193.2578-1526.8945-1193.7266-1526.3789-1194.1875-1525.8711-1194.6406-1525.3672-1195.0859-1524.875-1195.5156-1524.3945-1195.9375-1523.9219-1196.3516-1523.4531-1196.7539-1522.9844-1197.1563-1522.5234-1197.5469-1522.0664-1197.9336-1521.6094-1198.3164-1521.1484-1198.6953-1520.6836-1199.0781-1520.2031-1199.4609-1519.7188-1199.8438-1519.2188-1200.2305-1518.6992-1200.6289-1518.168-1201.0274-1517.625-1201.4258-1517.0664-1201.832-1516.4922-1202.2383-1515.9024-1202.6524-1515.3008-1203.0625-1514.6836-1203.4766-1514.0625-1203.8828-1513.4336-1204.2852-1512.7969-1204.6875-1512.1602-1205.0781-1511.5274-1205.4649-1510.8906-1205.8399-1510.2578-1206.2109-1509.6328-1206.5742-1509.0117-1206.9258-1508.4024-1207.2656-1507.8047-1207.5938-1507.2188-1207.918-1506.6367-1208.2305-1506.0625-1208.5391-1505.4883-1208.8399-1504.918-1209.1367-1504.3438-1209.4336-1503.7734-1209.7266-1503.1992-1210.0156-1502.625-1210.3086-1502.0469-1210.6016-1501.4609-1210.8984-1500.875-1211.1992-1500.2852-1211.5-1499.6992-1211.8086-1499.1094-1212.1211-1498.5234-1212.4336-1497.9492-1212.7461-1497.6719-1212.9024-1497.6367-1212.9219-1496.9609-1213.3399-1496.2774-1213.75-1495.5899-1214.1602-1494.8906-1214.5703-1494.1836-1214.9766-1493.4688-1215.3828-1492.7461-1215.7813-1492.293-1216.0274-1492.2461-1216.0547-1492.2305-1216.0625-1491.8555-1216.2891-1491.4258-1216.5469-1491.0039-1216.7969-1490.5938-1217.0391-1490.1836-1217.2774-1489.7813-1217.5078-1489.3789-1217.7344-1488.9805-1217.9531-1488.582-1218.168-1488.1836-1218.3789-1487.7774-1218.5859-1487.3672-1218.7891-1486.9531-1218.9922-1486.5352-1219.1953-1486.1172-1219.3945-1485.6953-1219.5899-1485.2695-1219.7813-1484.8399-1219.9766-1484.7656-1220.0078-1484.7461-1220.0156-1484.4805-1220.1602-1483.6914-1220.582-1482.9024-1221.0078-1482.1094-1221.4336-1481.3086-1221.8633-1480.5117-1222.2891-1479.7227-1222.707-1478.9375-1223.1211-1478.1524-1223.5274-1477.3711-1223.9219-1476.6016-1224.3047-1475.8359-1224.6719-1475.082-1225.0274-1474.3359-1225.3672-1473.6055-1225.6914-1472.8906-1225.9961-1472.1914-1226.2891-1471.5078-1226.5703-1470.8359-1226.8359-1470.1875-1227.0899-1469.5508-1227.332-1468.9258-1227.5664-1468.3242-1227.7852-1467.7383-1227.9961-1467.168-1228.1992-1466.5977-1228.3945-1466.0313-1228.5859-1465.4649-1228.7774-1464.9024-1228.9688-1464.3438-1229.1524-1463.7852-1229.3359-1463.2227-1229.5195-1462.6524-1229.707-1462.0781-1229.8984-1461.4922-1230.0899-1460.9102-1230.2813-1460.3242-1230.4805-1459.7344-1230.6758-1459.1445-1230.875-1458.5547-1231.0781-1457.9609-1231.2813-1457.3711-1231.4844-1456.7891-1231.6875-1456.2031-1231.8867-1455.6172-1232.0899-1455.0313-1232.2969-1454.4375-1232.5-1453.8399-1232.7109-1453.2305-1232.9219-1452.6172-1233.1406-1451.9961-1233.3633-1451.3633-1233.5938-1450.7188-1233.8281-1450.0625-1234.0703-1449.3867-1234.3242-1448.6953-1234.5859-1447.9922-1234.8555-1447.2734-1235.1328-1446.5313-1235.4219-1445.7695-1235.7227-1444.9844-1236.0274-1444.6055-1236.1758H-1436.3086L-1436.1524-1236.207-1435.625-1236.3047-1435.0977-1236.4063-1434.5664-1236.5039-1434.0391-1236.6016-1433.5117-1236.6953-1432.9805-1236.7891-1432.4453-1236.8789-1431.9024-1236.9688-1431.3555-1237.0586-1430.8008-1237.1445-1430.2344-1237.2344-1429.6602-1237.3203-1429.0859-1237.4063-1428.5039-1237.4922-1427.918-1237.5781-1427.3281-1237.6641-1426.7422-1237.7539-1426.1602-1237.8399-1425.582-1237.9258-1425.0078-1238.0078-1424.4414-1238.0938-1423.8789-1238.1758-1423.3203-1238.2578-1422.7774-1238.3359-1422.2305-1238.418-1421.6875-1238.4922-1421.1484-1238.5703-1420.6094-1238.6445-1420.0703-1238.7149-1419.5352-1238.7852-1418.9922-1238.8555-1418.4453-1238.9258-1417.8906-1238.9922-1417.3359-1239.0586-1416.7656-1239.1211-1416.1875-1239.1875-1415.6016-1239.2539-1414.9961-1239.3203-1414.3711-1239.3867-1413.7383-1239.457-1413.0781-1239.5274-1412.4024-1239.6016-1411.7149-1239.6758-1411.0234-1239.75-1410.3281-1239.8242-1409.6289-1239.8984-1409.2383-1239.9375V-1236.1758H0V-1239.9375L.3906-1239.8984 1.0898-1239.8242 1.7852-1239.75 2.4766-1239.6758 3.1641-1239.6016 3.8398-1239.5274 4.5-1239.457 5.1328-1239.3867 5.7578-1239.3203 6.3633-1239.2539 6.9492-1239.1875 7.5273-1239.1211 8.0977-1239.0586 8.6523-1238.9922 9.207-1238.9258 9.7539-1238.8555 10.2969-1238.7852 10.832-1238.7149 11.3711-1238.6445 11.9102-1238.5703 12.4492-1238.4922 12.9922-1238.418 13.5391-1238.3359 14.082-1238.2578 14.6406-1238.1758 15.2031-1238.0938 15.7695-1238.0078 16.3438-1237.9258 16.9219-1237.8399 17.5039-1237.7539 18.0898-1237.6641 18.6797-1237.5781 19.2656-1237.4922 19.8477-1237.4063 20.4219-1237.3203 20.9961-1237.2344 21.5625-1237.1445 22.1172-1237.0586 22.6641-1236.9688 23.207-1236.8789 23.7422-1236.7891 24.2734-1236.6953 24.8008-1236.6016 25.3281-1236.5039 25.8594-1236.4063 26.3867-1236.3047 26.9141-1236.207 27.0703-1236.1758H35.3672L35.7461-1236.0274 36.5313-1235.7227 37.293-1235.4219 38.0352-1235.1328 38.7539-1234.8555 39.457-1234.5859 40.1484-1234.3242 40.8242-1234.0703 41.4805-1233.8281 42.125-1233.5938 42.7578-1233.3633 43.3789-1233.1406 43.9922-1232.9219 44.6016-1232.7109 45.1992-1232.5 45.793-1232.2969 46.3789-1232.0899 46.9648-1231.8867 47.5508-1231.6875 48.1328-1231.4844 48.7227-1231.2813 49.3164-1231.0781 49.9063-1230.875 50.4961-1230.6758 51.0859-1230.4805 51.6719-1230.2813 52.2539-1230.0899 52.8398-1229.8984 53.4141-1229.707 53.9844-1229.5195 54.5469-1229.3359 55.1055-1229.1524 55.6641-1228.9688 56.2266-1228.7774 56.793-1228.5859 57.3594-1228.3945 57.9297-1228.1992 58.5-1227.9961 59.0859-1227.7852 59.6875-1227.5664 60.3125-1227.332 60.9492-1227.0899 61.5977-1226.8359 62.2695-1226.5703 62.9531-1226.2891 63.6523-1225.9961 64.3672-1225.6914 65.0977-1225.3672 65.8438-1225.0274 66.5977-1224.6719 67.3633-1224.3047 68.1328-1223.9219 68.9141-1223.5274 69.6992-1223.1211 70.4844-1222.707 71.2734-1222.2891 72.0703-1221.8633 72.8711-1221.4336 73.6641-1221.0078 74.4531-1220.582 75.2422-1220.1602 75.4844-1220.0274 75.5078-1220.0156 75.6016-1219.9766 76.0313-1219.7813 76.457-1219.5899 76.8789-1219.3945 77.2969-1219.1953 77.7148-1218.9922 78.1289-1218.7891 78.5391-1218.5859 78.9453-1218.3789 79.3438-1218.168 79.7422-1217.9531 80.1406-1217.7344 80.543-1217.5078 80.9453-1217.2774 81.3555-1217.0391 81.7656-1216.7969 82.1875-1216.5469 82.6172-1216.2891 83.0078-1216.0547 83.0547-1216.0274 83.5078-1215.7813 84.2305-1215.3828 84.9453-1214.9766 85.6523-1214.5703 86.3516-1214.1602 87.0391-1213.75 87.7227-1213.3399 88.3984-1212.9219 88.4336-1212.9024 88.4648-1212.8828 88.7109-1212.7461 89.2852-1212.4336 89.8711-1212.1211 90.4609-1211.8086 91.0469-1211.5 91.6367-1211.1992 92.2227-1210.8984 92.8086-1210.6016 93.3867-1210.3086 93.9609-1210.0156 94.5352-1209.7266 95.1055-1209.4336 95.6797-1209.1367 96.25-1208.8399 96.8242-1208.5391 97.3984-1208.2305 97.9805-1207.918 98.5664-1207.5938 99.1641-1207.2656 99.7734-1206.9258 100.3945-1206.5742 101.0195-1206.2109 101.6523-1205.8399 102.2891-1205.4649 102.9219-1205.0781 103.5586-1204.6875 104.1953-1204.2852 104.8242-1203.8828 105.4453-1203.4766 106.0625-1203.0625 106.6641-1202.6524 107.2539-1202.2383 107.8281-1201.832 108.3867-1201.4258 108.9297-1201.0274 109.4609-1200.6289 109.9805-1200.2305 110.4805-1199.8438 110.9648-1199.4609 111.4453-1199.0781 111.9102-1198.6953 112.3711-1198.3164 112.8281-1197.9336 113.2852-1197.5469 113.7461-1197.1563 114.2148-1196.7539 114.6836-1196.3516 115.1563-1195.9375 115.6367-1195.5156 116.1289-1195.0859 116.6328-1194.6406 117.1406-1194.1875 117.6563-1193.7266 118.1758-1193.2578 118.6914-1192.7891 119.2031-1192.3203 119.7109-1191.8555 120.2109-1191.3906 120.707-1190.9375 121.1914-1190.4883 121.6641-1190.043 122.125-1189.6133 122.5742-1189.1914 123.0117-1188.7774 123.4414-1188.3672 123.8594-1187.9649 124.2695-1187.5625 124.6797-1187.1602 125.082-1186.7539 125.4844-1186.3477 125.8906-1185.9297 126.3008-1185.5 126.7109-1185.0586 127.125-1184.6094 127.543-1184.1484 127.9688-1183.6719 128.3984-1183.1836 128.8281-1182.6836 129.2578-1182.1719 129.6836-1181.6524 130.1094-1181.125 130.5273-1180.5977 130.9375-1180.0703 131.3398-1179.5469 131.7344-1179.0234 132.1211-1178.5039 132.5039-1177.9883 132.8828-1177.4727 133.2578-1176.957 133.6328-1176.4375 133.7695-1176.25 134.2305-1175.8281 134.7187-1175.3672 135.2031-1174.9024 135.6797-1174.4375 136.1445-1173.9688 136.6055-1173.4961 137.0547-1173.0274 137.4961-1172.5625 137.9297-1172.0938 138.3555-1171.625 138.7773-1171.1602 139.1875-1170.6992 139.5859-1170.2461 139.9805-1169.7969 140.3711-1169.3477 140.7578-1168.9063 141.1367-1168.4688 141.5156-1168.0313 141.8984-1167.5899 142.2812-1167.1563 142.6602-1166.7266 143.043-1166.2969 143.4258-1165.8711 143.8164-1165.4414 144.2109-1165.0117 144.6055-1164.582 145.0039-1164.1524 145.4062-1163.7227 145.8086-1163.2891 146.2148-1162.8516 146.6289-1162.4063 147.043-1161.9609 147.4531-1161.5195 147.8633-1161.0703 148.2734-1160.6172 148.6797-1160.1602 149.082-1159.707 149.4766-1159.2578 149.8672-1158.8086 150.2539-1158.3594 150.6328-1157.9063 151.0078-1157.457 151.3789-1157.0039 151.7383-1156.5508 152.0937-1156.1016 152.4453-1155.6484 152.7891-1155.1914 153.1289-1154.7344 153.4648-1154.2656 153.7969-1153.7891 154.1289-1153.3047 154.4531-1152.8164 154.7695-1152.3203 155.0781-1151.8281 155.3789-1151.332 155.668-1150.8399 155.9531-1150.3438 156.2227-1149.8594 156.4844-1149.3789 156.7344-1148.9024 156.9727-1148.4414 157.1992-1147.9922 157.418-1147.5469 157.625-1147.1172 157.8281-1146.6914 157.918-1146.4922 157.9219-1146.4883 158.2109-1146.0781 158.5898-1145.5195 158.9609-1144.9649 159.3281-1144.4024 159.6875-1143.8438 160.0391-1143.2852 160.3828-1142.7305 160.7227-1142.1758 161.0586-1141.6211 161.3945-1141.0586 161.7266-1140.4961 162.0625-1139.9297 162.4023-1139.3555 162.7422-1138.7734 163.0859-1138.1836 163.4336-1137.5899 163.7852-1136.9883 164.1406-1136.3789 164.5039-1135.7617 164.8711-1135.1406 165.2422-1134.5117 165.6094-1133.8867 165.9805-1133.2617 166.3516-1132.6445 166.7109-1132.043 167.0664-1131.4492 167.4219-1130.8672 167.7617-1130.3008 168.0977-1129.7539 168.4336-1129.2109 168.7695-1128.668 169.1016-1128.1328 169.4375-1127.6016 169.7695-1127.0781 170.0977-1126.5625 170.4297-1126.0547 170.7578-1125.5469 171.0859-1125.043 171.4141-1124.543 171.7422-1124.0508 172.0664-1123.5586 172.3906-1123.0664 172.7187-1122.5703 173.043-1122.0742 173.3672-1121.5781 173.6914-1121.0781 174.0156-1120.5781 174.3398-1120.0781 174.6641-1119.5703 174.9883-1119.0586 175.3086-1118.5469 175.6289-1118.0352 175.9414-1117.5274 176.2539-1117.0195 176.5625-1116.5156 176.8633-1116.0156 177.1602-1115.5156 177.4492-1115.0274 177.7305-1114.543 178.0039-1114.0664 178.2734-1113.5859 178.5391-1113.1133 178.7969-1112.6445 179.0469-1112.1836 179.293-1111.7188 179.5352-1111.2539 179.7734-1110.7852 180.0117-1110.3125 180.25-1109.8281 180.4922-1109.332 180.7305-1108.8281 180.9687-1108.3164 181.2109-1107.7891 181.4531-1107.25 181.6953-1106.707 181.9336-1106.1563 182.168-1105.6016 182.3984-1105.043 182.6289-1104.4766 182.8555-1103.9063 183.0781-1103.3359 183.293-1102.7695 183.5-1102.2031 183.707-1101.6406 183.9062-1101.0703 184.1094-1100.4922 184.3086-1099.9102 184.5039-1099.3203 184.6992-1098.7305 184.8906-1098.1367 185.0781-1097.5352 185.2695-1096.9336 185.457-1096.3281 185.6445-1095.7227 185.832-1095.1094 186.0195-1094.4961 186.207-1093.8828 186.3945-1093.2734 186.582-1092.6641 186.7656-1092.0625 186.9531-1091.4649 187.0391-1091.1953V-1049.1367-1031.1992-833.3242-717.9805-711.4414L185.6289-711.1328 183.9687-710.7734 182.3555-710.4219 180.7891-710.0781 179.2656-709.7422 177.7734-709.4102 176.3164-709.0781 174.8945-708.7461 173.5117-708.4141 172.1523-708.0742 170.8008-707.7266 169.4492-707.3633 168.0937-706.9883 166.7383-706.6016 165.3672-706.1992 163.9922-705.7812 162.6172-705.3555 161.2461-704.9258 159.8789-704.4961 158.5039-704.0586 157.1211-703.6211 155.7539-703.1875 154.4102-702.7578 153.0781-702.3359 151.7656-701.9219 150.4883-701.5195 149.2383-701.1289 148.0078-700.7422 146.8164-700.3633 145.6445-699.9883 144.5078-699.6172 143.3906-699.2539 142.2852-698.8867 141.1836-698.5156 140.0898-698.1445 139-697.7656 137.9062-697.3867 136.8203-696.9961 135.7305-696.6016 134.6484-696.2031 133.5586-695.7969 132.4766-695.3906 131.3984-694.9844 130.3242-694.5859 129.2656-694.1953 128.2305-693.8164 127.2188-693.457 126.2344-693.1133 125.2813-692.7891 124.3672-692.4805 123.4883-692.1875 122.6484-691.9062 121.8398-691.6367 121.0625-691.375 120.3008-691.1133 119.5469-690.8437 118.8008-690.5742 118.2773-690.375 118.2656-690.3711 118.1055-690.2734 117.5703-689.9453 117.0352-689.6172 116.5039-689.2852 115.9805-688.9609 115.457-688.6328 114.9297-688.3047 114.4102-687.9766 113.8984-687.6562 113.3828-687.332 112.8672-687.0117 112.3516-686.6914 111.8359-686.375 111.3164-686.0586 110.7969-685.7461 110.2734-685.4375 109.75-685.1289 109.2227-684.8242 108.6953-684.5234 108.1719-684.2266 107.6523-683.9336 107.1289-683.6406 106.5977-683.3477 106.0625-683.0547 105.5273-682.7578 104.9922-682.4648 104.457-682.1719 103.9141-681.8711 103.3672-681.5703 102.8281-681.2656 102.2891-680.9609 101.7422-680.6445 101.2031-680.3281 100.6719-680.0156 100.1445-679.6992 99.6172-679.375 99.0977-679.0547 98.582-678.7266 98.0625-678.3945 97.543-678.0586 97.0313-677.7187 96.5313-677.3867 96.0352-677.0508 95.5391-676.7148 95.0469-676.3789 94.5547-676.0391 94.0664-675.707 93.5781-675.3672 93.0898-675.0312 92.6016-674.6992 92.1094-674.3594 91.6172-674.0273 91.1328-673.6992 90.6445-673.375 90.1602-673.0508 89.6719-672.7305 89.1836-672.4141 88.6875-672.0977 88.1953-671.7891 87.7109-671.4883 87.2227-671.1875 86.7266-670.8906 86.2227-670.5898 85.7148-670.293 85.1875-669.9922 84.6484-669.6875 84.1055-669.3828 83.5586-669.0742 83-668.7617 82.4336-668.4414 81.8477-668.1094 81.25-667.7695 80.6523-667.418 80.043-667.0586 79.4297-666.6836 78.8086-666.2969 78.1836-665.8945 77.5547-665.4766 76.9219-665.043 76.2852-664.5898 75.6406-664.1172 74.9961-663.6328 74.3477-663.1289 73.6992-662.6133 73.0508-662.0859 72.4063-661.5508 71.7656-661.0078 71.125-660.4531 70.4922-659.8984 69.8594-659.3359 69.2266-658.7695 68.5938-658.1953 67.9688-657.625 67.3477-657.0547 66.7344-656.4883 66.1289-655.9219 65.5313-655.3672 64.9414-654.8125 64.3555-654.2656 63.7734-653.7187 63.1875-653.1641 62.6016-652.6094 62.0195-652.0508 61.4336-651.4883 60.8477-650.9219 60.2578-650.3477 59.668-649.7656 59.0781-649.1797 58.4883-648.5859 57.9023-647.9883 57.3125-647.3828 56.7266-646.7773 56.1484-646.1719 55.5703-645.5664 54.9961-644.9531 54.418-644.3398 53.8438-643.7227 53.2695-643.1094 52.6953-642.5 52.1211-641.8867 51.5469-641.2812 50.9766-640.6797 50.3984-640.0781 49.8203-639.4805 49.2383-638.8828 48.6563-638.2891 48.0664-637.6953 47.4844-637.1094 46.8906-636.5273 46.2969-635.9453 45.6992-635.3711 45.1055-634.8008 44.5117-634.2383 43.9219-633.6836 43.3242-633.125 42.7227-632.5664 42.1328-632.0195 41.5469-631.4805 40.9648-630.9453 40.3867-630.418 39.8125-629.8945 39.25-629.3828 38.6797-628.8672 38.1055-628.3516 37.5313-627.8398 36.957-627.3281 36.3789-626.8164 35.8008-626.3008 35.2148-625.7812 34.6172-625.25 34.0117-624.707 33.3984-624.1562 32.7734-623.5898 32.1445-623.0156 31.5078-622.4297 30.8672-621.832 30.2188-621.2227 29.5742-620.6094 28.9258-619.9844 28.2656-619.3398 27.6055-618.6914 26.957-618.0391 26.3008-617.375 25.6484-616.707 25.0039-616.0391 24.3672-615.3711 23.7383-614.7031 23.7031-614.668 23.6914-614.6523 23.625-614.5664 23.1328-613.9375 22.6289-613.2852 22.1133-612.5977 21.5742-611.8789 21.0234-611.1289 20.4531-610.3516 19.875-609.5469 19.293-608.7344 18.7109-607.9062 18.1328-607.0742 17.5742-606.2578 17.0313-605.457 16.5078-604.6758 16.0039-603.918 15.5234-603.1758 15.0625-602.457 14.6172-601.7578 14.1875-601.0703 13.7656-600.3906 13.3594-599.7227 12.9609-599.0547 12.5664-598.3867 12.1836-597.7266 11.8008-597.0586 11.4258-596.3867 11.0547-595.7109 10.6875-595.0391 10.3281-594.3672 9.9727-593.6953 9.6211-593.0312 9.2734-592.3711 8.9336-591.7187 8.5977-591.0781 8.2656-590.4531 7.9375-589.8398 7.6133-589.2344 7.2891-588.6445 6.9687-588.0625 6.6484-587.4883 6.3281-586.9258 6.0117-586.3711 5.6914-585.8242 5.375-585.2773 5.0508-584.7266 4.7227-584.1758 4.3945-583.6211 4.0625-583.0664 3.7266-582.5039 3.3867-581.9336 3.043-581.3633 2.7617-580.8906C-3.1484-545.3789-3.5156-508.9687 1.6406-473.3594L1.8555-473.0352 2.4258-472.168 2.9883-471.3242 3.5352-470.5 4.0703-469.6953 4.5898-468.9102 5.0859-468.1484 5.5625-467.4102 6.0234-466.6836 6.4687-465.9648 6.8945-465.2617 7.3164-464.5547 7.7383-463.8359 8.1523-463.1094 8.5664-462.3672 8.9844-461.6094 9.4023-460.8398 9.8203-460.0586 10.2422-459.2617 10.6719-458.457 11.0977-457.6445 11.5312-456.8242 11.9648-456.0078 12.4023-455.1953 12.8398-454.3867 13.2773-453.5859 13.707-452.7969 14.1289-452.0391 14.543-451.2969 14.9492-450.5664 15.3477-449.8477 15.7461-449.1406 16.1367-448.4375 16.5313-447.7305 16.9297-447.0117 17.3359-446.2852 17.7461-445.5469 18.1641-444.793 18.5938-444.0195 19.0352-443.2266 19.4844-442.4219 19.9453-441.5937 20.418-440.7539 20.9023-439.9023 21.3984-439.043 21.9023-438.1797 22.4102-437.3281 22.918-436.4961 23.418-435.6992 23.9219-434.918 24.4219-434.1641 24.918-433.4492 25.4063-432.7617 25.8867-432.1016 26.3672-431.4609 26.8516-430.8281 27.3398-430.2031 27.8359-429.582 28.3359-428.9648 28.8398-428.3477 29.3555-427.7344 29.8789-427.1094 30.418-426.4805 30.9688-425.8516 31.5273-425.2187 32.0859-424.5937 32.6484-423.9766 33.2148-423.3633 33.7773-422.7656 34.3359-422.1836 34.8906-421.6133 35.4375-421.0586 35.9766-420.5234 36.5039-420 37.0234-419.4883 37.5313-418.9922 38.0234-418.5117 38.5078-418.043 38.9805-417.582 39.4609-417.1133 39.9414-416.6445 40.418-416.1719 40.9023-415.6953 41.3906-415.2109 41.8906-414.7187 42.3945-414.2187 42.9102-413.707 43.4453-413.1758 43.9922-412.6328 44.5547-412.0742 45.1328-411.5039 45.7227-410.918 46.3281-410.3242 46.9453-409.7227 47.5664-409.1133 48.1953-408.5 48.8281-407.8828 49.4648-407.2617 50.0938-406.6484 50.7148-406.0391 51.332-405.4336 51.9336-404.8359 52.5273-404.2461 53.1094-403.6562 53.6875-403.0703 54.2578-402.4844 54.8281-401.8906 55.3945-401.2969 55.9531-400.707 56.5234-400.1055 57.1016-399.4883 57.6836-398.875 58.2734-398.2578 58.875-397.6328 59.4883-397.0078 60.1094-396.3828 60.7383-395.7656 61.3672-395.1602 62-394.5625 62.6367-393.9766 63.2695-393.4141 63.9063-392.8633 64.543-392.3242 65.168-391.8086 65.7773-391.3164 66.3711-390.8477 66.957-390.3945 67.5234-389.9609 68.0781-389.543 68.6211-389.1367 69.1523-388.7422 69.6836-388.3555 70.2109-387.9766 70.7344-387.6016 71.2578-387.2383 71.7734-386.8828 72.293-386.5312 72.8086-386.1914 73.3242-385.8555 73.8438-385.5234 74.3672-385.1953 74.8906-384.875 75.4102-384.5586 75.9375-384.2461 76.457-383.9375 76.9727-383.6328 77.4883-383.332 78-383.0312 78.5117-382.7344 79.0234-382.4336 79.5313-382.1328 80.043-381.832 80.5586-381.5273 81.0742-381.2187 81.5898-380.9102 82.1094-380.5977 82.6328-380.2812 83.1602-379.9609 83.6953-379.6328 84.2305-379.3086 84.7656-378.9844 85.3047-378.6562 85.8516-378.3281 86.3984-378.0039 86.9375-377.6836 87.4805-377.3633 88.0195-377.0508 88.5547-376.7383 89.0898-376.4297 89.6289-376.1211 90.1641-375.8125 90.6992-375.5039 91.2383-375.1914 91.7773-374.8789 92.3203-374.5547 92.8672-374.2305 93.4102-373.8984 93.9648-373.5586 94.5195-373.207 95.0781-372.8516 95.6328-372.4844 96.1914-372.1133 96.75-371.7305 97.3164-371.3359 97.8828-370.9336 98.4492-370.5273 99.0234-370.1133 99.5938-369.6953 100.1719-369.2695 100.7578-368.8398 101.3516-368.4062 101.9531-367.9727 102.5664-367.5391 103.1797-367.1133 103.8008-366.6914 104.4375-366.2734 105.0781-365.8594 105.7305-365.457 106.3828-365.0664 107.0391-364.6875 107.6953-364.3203 108.3516-363.9687 109-363.6289 109.6484-363.3008 110.3008-362.9766 110.9492-362.6641 111.5898-362.3633 112.2305-362.0664 112.8672-361.7734 113.5039-361.4844 114.1367-361.1992 114.7695-360.918 115.3984-360.6406 116.0234-360.3633 116.6445-360.0937 117.2656-359.8242 117.8828-359.5586 118.4922-359.3047 119.0898-359.0547 119.6797-358.8125 120.2617-358.5703 120.832-358.3398 121.3984-358.1094 121.9492-357.8867 122.4961-357.668 123.0352-357.4492 123.5625-357.2305 124.0859-357.0156 124.6133-356.7969 125.1328-356.5742 125.6523-356.3516 126.1641-356.1289 126.6719-355.9062 127.1875-355.6797 127.6953-355.457 128.1953-355.2344 128.6992-355.0117 129.2031-354.793 129.7031-354.5781 130.2031-354.3633 130.6992-354.1562 131.1992-353.9492 131.6914-353.75 132.1797-353.5547 132.6641-353.3672 133.1445-353.1875 133.6211-353.0078 134.1016-352.8359 134.5703-352.668 135.0273-352.5078 135.4805-352.3555 135.9297-352.2031 136.375-352.0586 136.8203-351.9141 137.2539-351.7734 137.6875-351.6367 138.1133-351.5078 138.5352-351.375 138.9531-351.2461 139.3633-351.1211 139.7695-350.9961 140.1758-350.8711 140.582-350.7461 140.9844-350.6211 141.3867-350.4961 141.793-350.3672 142.1992-350.2383 142.6172-350.1094 143.0391-349.9727 143.4609-349.8359 143.8906-349.6953 144.3242-349.5547 144.7656-349.4102 145.2109-349.2578 145.6602-349.1094 146.1172-348.9531 146.5859-348.793 147.0586-348.6328 147.5312-348.4687 148.0156-348.2969 148.5039-348.125 148.9961-347.9492 149.5-347.7695 150.0078-347.5859 150.5273-347.3945 151.0508-347.1992 151.5781-347 152.1133-346.7969 152.6562-346.5937 153.2148-346.3789 153.793-346.1602 154.3828-345.9414 154.9844-345.7109 155.6094-345.4805 156.25-345.2383 156.9062-344.9961 157.5781-344.75 158.2695-344.5 158.9766-344.2422 159.7031-343.9766 160.4492-343.707 161.2109-343.4297 161.9883-343.1445 162.7812-342.8594 163.5742-342.5703 163.9453-342.4336 164.4023-342.4648 165.2812-342.5273 166.1797-342.5898 167.0859-342.6602 168.0117-342.7344 168.9609-342.8125 169.9219-342.8945 170.8945-342.9805 171.875-343.0703 172.8711-343.1641 173.8711-343.2617 174.8672-343.3633 175.8789-343.4648 176.8945-343.5664 177.9023-343.668 178.9062-343.7617 179.8984-343.8555 180.8906-343.9414 181.8867-344.0273 182.8789-344.1016 183.8789-344.1758 184.8828-344.2422 185.8984-344.3047 186.9336-344.3594 187.0391-344.3633V-334.1914-213.7227 0 44.0078Z"/>
</g>
</svg>
