<svg xmlns="http://www.w3.org/2000/svg" xmlns:xlink="http://www.w3.org/1999/xlink" xmlns:inkscape="http://www.inkscape.org/namespaces/inkscape" version="1.1" width="2100" height="2100" viewBox="0 0 2100 2100">
<defs>
<clipPath id="clip_0">
<path d="M237.936 118.945H2027.87V1981.05H237.936Z"/>
</clipPath>
</defs>
<g clip-path="url(#clip_0)">
<path transform="matrix(1,0,0,1,1568.5432,658.7449)" d="M0 0C33.6414 .0458 67.2759 .0917 100.9172 .1375 100.832-7.4657 100.7666-15.0623 100.688-22.6655 100.6094-31.1134 100.5176-39.568 100.4326-48.0159 100.3474-56.621 100.2493-65.2196 100.1707-73.8247 100.092-82.3251 100.0002-90.8254 99.9153-99.3258 99.8301-107.9048 99.7319-116.4836 99.6533-125.0626 99.5813-133.5564 99.4829-142.0502 99.3979-150.5439 99.3193-158.8676 99.2209-167.1846 99.1489-175.5015 99.1294-177.8395 99.1033-180.1774 99.0769-182.5087 80.9368-182.489 62.7966-182.476 44.6565-182.4695-8.3757-182.4629-61.4016-182.4236-114.4338-182.3909-169.6206-182.3516-224.8074-182.3385-279.9941-182.2992-336.4973-182.2599-393.0002-182.2402-449.5034-182.214-505.8623-182.1813-562.2214-182.1223-618.5806-182.1223-674.219-182.1223-729.8577-182.0699-785.4963-182.0372-840.467-182.0045-895.4377-181.9783-950.4084-181.9456-1002.55-181.9193-1054.6981-181.9127-1106.8397-181.8669-1124.0828-181.8539-1141.3258-181.8342-1158.5687-181.8342-1158.5491-180.7798-1158.5294-179.7255-1158.5099-178.6711-1158.4313-174.4602-1158.3527-170.2559-1158.2871-166.045-1158.1497-157.8917-1157.9924-149.7385-1157.8484-141.5787-1157.7044-133.2487-1157.5537-124.912-1157.4031-116.5819-1157.2525-108.4614-1157.1084-100.3408-1156.9644-92.2203-1156.8268-84.4207-1156.6892-76.6145-1156.5452-68.8083-1156.4011-60.7992-1156.2571-52.79-1156.1129-44.7743-1155.9755-36.6799-1155.8182-28.5791-1155.6808-20.4847-1155.5759-14.1586-1155.4515-7.8324-1155.3402-1.5062-1140.887-1.4867-1126.4403-1.4539-1111.9937-1.4277-1084.6786-1.4015-1057.3701-1.3622-1030.055-1.3229-972.9495-1.2574-915.8503-1.1788-858.7449-1.1002-801.3052-1.0348-743.8657-.9692-686.426-.8776-628.3186-.799-570.2043-.7205-512.0903-.6549-454.8079-.5895-397.5256-.5109-340.2432-.4323-283.2227-.3668-226.1956-.2882-169.1753-.2096-112.7834-.131-56.3916-.0656 0 0ZM270.8848-212.1814C272.3386-198.8021 271.2646-185.22 270.7671-171.8931 270.0925-160.2231 270.2693-148.7037 270.04-137.0469 270.5312-127.1189 270.7998-117.2302 270.6558-107.2892 270.6426-99.6794 270.9241-92.0436 269.8435-84.4993 269.4966-77.7278 270.04-70.7665 269.4702-64.0604 268.5469-52.0499 269.8435-39.9937 269.3853-27.9962 269.2148-15.6975 268.0493-3.484 268.3176 8.795 268.2915 26.9418 268.3635 45.0885 268.2915 63.2286 268.01 74.558 267.5515 85.9005 268.1409 97.2169 267.9575 110.2164 268.7239 123.1635 269.012 136.1234 268.9399 157.2238 268.8416 178.3043 269.1233 199.3915 268.6909 230.9567 271.8738 262.725 268.3899 294.1527 267.9968 305.8881 267.4009 317.7677 268.5601 329.4178 269.2476 331.5726 268.5208 334.0807 269.3918 336.0651 269.3918 336.2679 269.3918 336.4777 269.3918 336.6805 269.3918 337.1913 269.3918 337.7089 269.3982 338.2262 269.4048 338.6124 269.4114 338.9989 269.4246 339.3851 269.4246 339.6014 269.4312 339.8175 269.4375 340.0336 264.1855 340.0336 258.9268 340.0336 253.6746 340.0402 247.0276 340.0468 240.3806 340.0468 233.74 340.0468 226.8376 340.0468 219.9351 340.0533 213.0327 340.0533 206.1106 340.0533 199.1885 340.0663 192.2729 340.0663 185.3181 340.0663 178.3633 340.0729 171.4084 340.0729 164.3096 340.0729 157.2107 340.0795 150.1118 340.0795 143.1504 340.0795 136.1824 340.0795 129.2146 340.0924 126.3201 340.0924 123.4319 340.0924 120.5374 340.0924 116.6868 340.0924 112.8293 340.0861 108.9722 340.099 108.2126 340.099 107.4529 340.099 106.6931 340.099 105.1672 340.099 103.6479 340.099 102.1221 340.099 101.6704 340.099 101.2578 339.9156 100.9565 339.621 100.2427 339.431 99.6926 338.7828 99.6926 338.0099 99.6926 330.2037 99.6074 322.3976 99.5876 314.598 99.5615 306.5365 99.5027 298.475 99.4763 290.4132 99.4502 282.6857 99.4043 274.9515 99.3716 267.224 99.3389 259.2474 99.3259 251.2711 99.2668 243.2946 99.2014 235.1478 99.1882 227.0077 99.1555 218.861 99.1162 210.6554 99.0835 202.4498 99.0442 194.2374 99.0049 187.0272 98.9854 179.817 98.946 172.6068 89.2209 172.6002 79.5027 172.5936 69.7776 172.5873 22.4297 172.5609-24.9182 172.5282-72.2791 172.5021-122.1155 172.4694-171.9651 172.4366-221.8145 172.4103-274.6111 172.3776-327.4075 172.358-380.2039 172.3121-433.1707 172.2728-486.1375 172.2596-539.1042 172.2203-591.678 172.181-644.2517 172.1549-696.8257 172.1222-746.9238 172.0961-797.0093 172.0697-847.1077 172.037-896.4594 171.9977-945.7981 171.9716-995.1499 171.9454-1038.0576 171.9191-1080.9785 171.8929-1123.8864 171.8668-1135.0847 171.8602-1146.2898 171.847-1157.4882 171.847-1157.5014 178.337-1157.521 184.8334-1157.534 191.33-1157.5603 207.787-1157.593 224.2506-1157.6257 240.7079-1157.6978 275.9862-1157.7633 311.2711-1157.8287 346.5497-1157.9008 385.6984-1157.9794 424.8407-1158.0514 463.9894-1158.13 504.5592-1158.2086 545.1224-1158.2871 585.6923-1158.3593 626.3737-1158.4509 667.0548-1158.5164 707.736-1158.5819 747.5724-1158.6736 787.4086-1158.7456 827.2384-1158.8242 868.4437-1158.9027 909.6552-1158.9813 950.8602-1159.0534 988.0509-1159.1123 1025.2416-1159.1909 1062.4323-1153.8602 1062.4127-1148.5294 1062.38-1143.1987 1062.3602-1130.9656 1062.3143-1118.7324 1062.2687-1106.4993 1062.2228-1080.4219 1062.1246-1054.3445 1062.0263-1028.2737 1061.9215-1001.7838 1061.8102-975.3004 1061.7186-948.8105 1061.6137-922.1307 1061.5023-895.4443 1061.3976-868.7579 1061.306-841.4167 1061.2077-814.0754 1061.0963-786.7341 1060.9916-760.0935 1060.8869-733.4597 1060.7755-706.8257 1060.6837-680.2178 1060.5856-653.6101 1060.4743-627.0022 1060.3761-605.509 1060.2975-584.0225 1060.2123-562.5293 1060.1271-552.1296 1060.0878-541.7302 1060.0485-531.3308 1060.0028-530.4204 1060.0028-529.6543 1060.7623-529.6543 1061.6793-529.6477 1062.2687-529.9619 1062.7926-530.4336 1063.0939-530.3418 1069.4789-530.1978 1075.8705-530.0798 1082.2621-529.949 1089.3742-529.8113 1096.4796-529.6936 1103.5917-529.5691 1110.6054-529.4446 1117.6256-529.3071 1124.6395-529.1631 1131.6859-529.0386 1138.726-528.9143 1145.7723-528.7964 1152.7077-528.6587 1159.6364-528.5344 1166.5714-528.4099 1173.4935-528.2791 1180.4157-528.1545 1187.3378-528.0366 1194.0765-527.9058 1200.8217-527.7812 1207.5604-527.6699 1213.6378-527.5586 1219.7084-527.4473 1225.7858-527.4407 1226.2377-527.4341 1226.6896-527.4211 1227.1412-527.408 1227.6456-527.6438 1228.1041-528.0105 1228.4118-527.9451 1228.5888-527.9124 1228.7721-527.9124 1228.9618-527.9124 1228.9882-527.9124 1229.0143-527.9124 1229.0404-527.9646 1229.9967-528.77 1230.6254-529.6804 1230.6254-529.8506 1230.6254-530.021 1230.6254-530.1846 1230.6254-530.1912 1230.6254-530.1912 1230.6188-530.1978 1230.6188-540.2632 1230.6188-550.3223 1230.5663-560.3943 1230.5468-572.418 1230.5206-584.448 1230.4943-596.4783 1230.455-622.8633 1230.3895-649.2419 1230.3241-675.6272 1230.2587-702.1235 1230.2062-728.6265 1230.1408-755.123 1230.0621-782.7786 1229.9967-810.4343 1229.931-838.0833 1229.8656-865.4966 1229.8002-892.9033 1229.7348-920.3167 1229.6561-947.3304 1229.5907-974.3444 1229.525-1001.3582 1229.4596-1027.1473 1229.3942-1052.9365 1229.3417-1078.7257 1229.2631-1104.9472 1229.1845-1131.1686 1229.1454-1157.39 1229.0668-1165.6611 1229.0536-1173.9257 1229.034-1182.1969 1229.0077-1183.559 1229.7804-1185.491 1229.2828-1186.9906 1229.3615-1193.1596 1228.5363-1199.6953 1229.8461-1205.766 1229.047-1213.3561 1227.567-1221.1033 1225.7072-1228.2023 1222.6029-1234.8427 1220.1735-1241.5945 1217.9598-1247.6719 1214.2467-1266.4146 1203.7096-1282.2626 1188.5165-1295.3865 1171.6337-1301.3917 1164.3056-1306.6569 1156.3095-1311.3262 1148.1168-1320.0231 1134.4103-1325.7074 1118.8307-1328.4645 1102.8385-1329.1389 1096.329-1329.1979 1089.7933-1329.0408 1083.264-1329.0342 1077.2982-1329.7677 1071.234-1329.0276 1065.3204-1328.4841 1063.5128-1330.357 1060.7755-1328.6609 1059.649-1328.6543 1029.184-1328.6216 998.7255-1328.5955 968.2606-1328.5626 920.965-1328.5365 873.663-1328.5038 826.3676-1328.4645 776.4657-1328.4317 726.5702-1328.3989 676.6749-1328.3662 624.8478-1328.3335 573.0204-1328.2942 521.1932-1328.2615 470.6036-1328.2352 420.014-1328.1959 369.4247-1328.1502 320.0924-1328.1239 270.7604-1328.0912 221.4281-1328.065 173.694-1328.0322 125.9662-1327.9995 78.2384-1327.9602 31.1788-1327.9406-15.8744-1327.9013-62.9341-1327.875-97.1123-1327.8489-131.2971-1327.8357-165.4818-1327.8292-169.7451-1327.8292-174.0084-1327.8292-178.2716-1328.0256-178.3109-1328.2286-178.3765-1328.412-178.4878-1329.2634-178.9855-1329.3419-179.9547-1329.3878-180.8387-1329.4141-181.4674-1329.4205-182.1027-1329.4205-182.7313-1329.4402-185.5277-1329.4337-188.3241-1329.4337-191.1139-1329.4337-193.7399-1329.4337-196.366-1329.4337-198.9987-1329.4337-200.3673-1329.4598-201.7426-1329.3355-203.1112-1329.2175-204.4341-1328.9032-205.7505-1328.674-207.0536-1328.4645-208.2651-1328.3203-209.4833-1328.1436-210.6948-1327.9602-211.9915-1327.6852-213.2684-1327.4559-214.3359-1327.2202-215.5343-1326.9976-216.7328-1326.8141-217.9377-1326.6307-219.1559-1326.4933-220.387-1326.251-221.5724-1325.6943-224.2509-1324.9412-226.8768-1324.3256-229.5422-1323.7035-232.2338-1323.1926-234.9451-1322.289-237.5646-1322.2562-237.6693-1322.2234-237.7676-1322.1841-237.8657-1322.158-237.9509-1322.1317-238.0295-1322.1056-238.1146-1322.0924-238.1539-1322.0794-238.1997-1322.0597-238.239-1322.04-238.298-1322.0204-238.3569-1321.9943-238.4093-1321.9811-238.4486-1321.968-238.4879-1321.955-238.5272-1321.9353-238.5927-1321.9157-238.6516-1321.8894-238.7172-1321.8764-238.7565-1321.8567-238.8022-1321.8501-238.8153-1321.2804-240.4657-1320.5338-242.0701-1319.7545-243.6353-1318.9556-245.2397-1318.1436-246.8442-1317.3314-248.4486-1316.2509-250.6163-1315.1442-252.7709-1314.1422-254.7421-1313.448-256.1566-1312.7539-257.5712-1312.0924-258.9988-1311.4572-260.3674-1310.8351-261.7427-1310.1802-263.1115-1309.5383-264.467-1308.818-265.7899-1307.9797-267.0406-1307.0827-268.3701-1306.1592-269.6799-1305.2489-270.9962-1304.4369-272.2339-1303.638-273.4781-1302.9307-274.526-1302.8258-274.6897-1302.7145-274.8534-1302.6098-275.0106-1302.5377-275.1089-1302.4722-275.207-1302.4395-275.2594-1302.3674-275.3707-1302.2954-275.4756-1302.2234-275.5803-1301.1428-277.1782-1299.9052-278.6387-1298.6216-280.0663-1297.9994-280.7539-1297.338-281.3956-1296.6962-282.0637-1295.9955-282.7905-1295.3013-283.5306-1294.6203-284.2771-1292.8585-286.3008-1291.2018-288.403-1289.499-290.4723-1287.6915-292.6727-1285.8056-294.7815-1283.8408-296.8444-1282.8651-297.866-1281.8108-298.822-1280.8087-299.824-1279.8593-300.7671-1278.9685-301.756-1278.0452-302.7317-1276.1592-304.7291-1274.2207-306.6937-1272.256-308.6256-1271.2279-309.6276-1270.1931-310.6295-1269.1978-311.6643-1268.2023-312.699-1267.2332-313.7533-1266.2443-314.7946-1264.3712-316.7789-1262.518-318.8156-1260.4354-320.5837-1259.8722-321.0618-1259.3091-321.5267-1258.7328-321.9786-1258.1565-322.437-1257.5606-322.8562-1256.9646-323.2819-1255.8054-324.1135-1254.5612-324.8274-1253.3627-325.5804-1251.0838-327.0146-1248.7852-328.4292-1246.5193-329.8765-1245.2095-330.7213-1243.8997-331.5464-1242.603-332.3978-1240.4551-333.9171-1238.379-335.5413-1236.3031-337.1456-1235.1439-338.0363-1233.9913-338.9597-1232.7601-339.739-1231.6076-340.479-1230.4288-341.1404-1229.2173-341.7756-1227.9468-342.4371-1226.6764-343.0854-1225.3862-343.7075-1224.1813-344.2838-1222.9567-344.8405-1221.7451-345.4103-1219.2434-346.6022-1216.6959-347.7678-1214.0634-348.665-1213.2317-348.9467-1212.3738-349.1627-1211.5225-349.392-1210.6449-349.6277-1209.7673-349.87-1208.8898-350.0861-1207.1609-350.5183-1205.4059-350.8326-1203.6574-351.1798-1201.9873-351.5596-1200.3436-352.0245-1198.6737-352.4044-1196.9317-352.8038-1195.1307-352.8562-1193.3626-353.0724-1191.555-353.2885-1189.7738-353.6356-1187.9663-353.832-1186.2178-354.022-1184.4628-354.0874-1182.7077-354.1791-1181.3783-354.297-1180.0619-354.4738-1178.7391-354.6506-1177.4227-354.8406-1176.1261-355.0697-1174.7968-355.1418-1172.2034-355.2793-1169.5905-355.2203-1166.9905-355.2203-1164.4038-355.2203-1161.8235-355.2203-1159.2367-355.2203-1156.6696-355.2203-1154.0894-355.299-1151.5222-355.1156-1151.1162-355.0894-1150.7168-355.0566-1150.3173-355.0304-1147.855-354.8929-1145.386-354.965-1142.9237-354.8864-1141.6532-354.847-1140.3827-354.7882-1139.1123-354.7686-1137.8877-354.7489-1136.663-354.7489-1135.4384-354.7489-1133.035-354.7489-1130.6381-354.7489-1128.2348-354.7489-1127.0166-354.7489-1125.792-354.762-1124.574-354.7227-1123.3035-354.6833-1122.0396-354.5851-1120.8543-354.5066-1119.6427-354.428-1118.4312-354.3821-1117.2196-354.369-1116.8463-354.369-1116.4666-354.369-1116.0933-354.369-1115.2615-354.369-1114.4298-354.3756-1113.6309-354.3232-1113.4933-354.3167-1113.3558-354.3101-1113.2445-354.297-1111.8627-354.2119-1110.4874-353.9957-1109.1056-353.891-1107.3637-353.8124-1105.6217-353.8124-1103.8732-353.819-1101.9281-353.819-1099.9832-353.8254-1098.0316-353.7141-1096.0867-353.6094-1094.0827-353.485-1092.1835-352.9872-1090.2975-352.4961-1088.4507-351.8936-1086.7545-351.5334-1084.9799-351.1995-1083.1854-350.885-1081.6072-350.7737-1080.1862-350.7017-1078.7584-350.7213-1077.3308-350.7213-1075.7133-350.7213-1074.0957-350.7148-1072.4782-350.7279-1070.9458-350.7345-1069.4067-350.7933-1067.8744-350.7933-1067.6517-350.7999-1067.4291-350.7933-1067.2064-350.7933-1067.2064-358.7174-1067.2064-366.6481-1067.2064-374.5721-1067.2064-384.1465-1067.2064-393.7142-1067.2064-403.2886-1067.2064-412.5486-1067.2064-421.8086-1067.2064-431.0686-1067.2064-440.6823-1067.2064-450.3025-1067.2064-459.9161-1067.2064-469.3398-1067.2064-478.7635-1067.2064-488.1874-1067.2064-496.7859-1067.2064-505.391-1067.2064-513.9962-1067.2064-519.0519-1067.2064-524.1075-1067.2064-529.1632-1067.2064-530.9248-1067.2064-532.6799-1067.2064-534.4349-1067.2064-534.7689-1067.1082-535.0834-1066.9313-535.3452-1066.8135-536.1508-1066.0932-536.7664-1065.268-536.7664-1065.1239-536.7664-1064.9733-536.7664-1064.8292-536.7729-1064.7833-536.7729-1064.7374-536.7729-1064.6917-536.7664-1057.4815-536.7729-1050.2777-536.8187-1043.0675-536.8187-1035.5625-536.8187-1028.0642-536.8514-1020.5658-536.8711-1013.002-536.8907-1005.4315-536.9104-997.8677-536.9236-990.5592-536.9366-983.2572-536.9563-975.9487-536.976-968.3259-536.989-960.7031-537.0087-953.0803-537.0283-945.5951-537.0414-938.1097-537.0546-930.6245-537.0741-923.4731-537.0937-916.3219-537.1134-909.1707-537.1266-902.2878-537.1331-895.405-537.1593-888.5222-537.1724-887.0094-537.179-885.4901-537.1724-883.9773-537.1854-883.9708-537.1854-883.9642-537.1854-883.9512-537.1854-883.9249-537.1854-883.8922-537.1854-883.866-537.1854-883.0933-537.1854-882.4319-536.6223-882.255-535.8954-881.5936-535.6661-881.1351-535.0244-881.1221-534.2975-881.1221-525.6202-881.0958-516.9431-881.0762-508.2725-881.0566-498.875-881.0566-489.484-881.0304-480.093-880.9977-470.2567-880.9977-460.4138-880.978-450.5775-880.9584-440.8264-880.9257-431.0752-880.9257-421.324-880.9257-411.5925-880.8928-401.861-880.8732-392.1229-880.847-382.673-880.8208-373.2164-880.8208-363.7666-880.8208-359.5557-880.8077-355.3448-880.8011-351.1339-859.3081-351.219-837.8083-351.3042-816.3152-351.3828-782.7524-351.5203-749.1899-351.6578-715.6272-351.7822-682.0188-351.9066-648.4167-352.0442-614.8083-352.1818-579.7197-352.3258-544.6313-352.4568-509.5493-352.5944-475.9409-352.7318-442.3391-352.8694-408.7371-352.9938-374.9126-353.1248-341.0879-353.2688-307.2568-353.3998-274.4668-353.5242-241.6704-353.6617-208.874-353.7861-198.0161-353.832-187.1516-353.8713-176.2937-353.9171-176.2937-361.5924-176.2937-369.261-176.2937-376.9362-176.2937-386.5106-176.2937-396.0784-176.2937-405.6527-176.2937-414.9127-176.2937-424.1727-176.2937-433.4327-176.2937-443.0464-176.2937-452.6666-176.2937-462.2803-176.2937-471.704-176.2937-481.1277-176.2937-490.5514-176.2937-499.15-176.2937-507.7551-176.2937-516.3602-176.2937-521.416-176.2937-526.4717-176.2937-531.5273-176.2937-533.2889-176.2937-535.0441-176.2937-536.7991-176.2937-537.1266-176.1956-537.4343-176.0317-537.6963-175.9138-538.5083-175.1936-539.1305-174.3618-539.1305-174.2178-539.1305-174.0671-539.1305-173.9231-539.1371-173.8706-539.1371-173.825-539.1371-173.7791-539.1305-166.5688-539.1371-159.365-539.1829-152.1614-539.1829-144.6565-539.1829-137.1582-539.2156-129.6597-539.2352-122.0959-539.2549-114.5254-539.2745-106.9617-539.2876-99.6531-539.3008-92.3511-539.3204-85.0427-539.3401-77.4199-539.3531-69.7971-539.3728-62.1743-539.3925-54.689-539.4055-47.2036-539.4186-39.7185-539.4382-32.5671-539.4579-25.4158-539.4775-18.2646-539.4907-11.3818-539.4972-4.499-539.5234 2.3838-539.5365 3.9031-539.5431 5.416-539.5365 6.9353-539.5496 6.9419-539.5496 6.9482-539.5496 6.9548-539.5496 6.9812-539.5496 7.0139-539.5496 7.04-539.5496 7.8127-539.5496 8.4741-538.9865 8.6511-538.2595 9.3125-538.0303 9.7773-537.3885 9.7905-536.6616 9.7905-527.9844 9.8167-519.3073 9.8364-510.6366 9.856-501.2391 9.856-491.8481 9.8823-482.4572 9.915-472.6208 9.915-462.778 9.9346-452.9417 9.9543-443.1904 9.9871-433.4393 9.9871-423.6881 9.9871-413.9567 10.0198-404.2251 10.0393-394.4871 10.0657-385.0371 10.0918-375.5806 10.0918-366.1307 10.0918-361.6448 10.105-357.1588 10.1179-352.6729 12.4624-352.6401 14.8135-352.6271 17.1646-352.7122 23.2876-353.6945 29.4697-354.297 35.6519-354.7489 37.6885-354.8733 39.8691-354.0023 41.8601-353.8451 44.8792-353.688 47.9111-353.7731 50.9041-353.963 56.5557-354.8799 62.3315-354.3756 67.957-355.3186 74.1521-356.5302 80.5635-356.0389 86.8438-356.4843 92.9341-356.2485 99.2209-355.5413 105.2329-356.1831 113.5696-357.7417 121.7031-355.7312 129.9873-354.9977 138.4026-354.225 146.844-352.9218 155.0955-351.0946 160.8059-348.9073 166.4905-346.6479 172.2075-344.4476 181.0222-341.0356 187.918-334.3558 195.8486-329.405 203.55-323.0658 212.1946-317.748 218.9268-310.3284 226.1697-302.5156 232.2534-293.6813 240.0203-286.3531 243.1506-282.6268 245.1611-278.5863 248.4617-275.1219 252.0439-270.6819 254.7158-265.528 257.7808-260.7539 260.2432-257.5253 263.0393-254.3164 263.4519-250.1121 264.3752-245.9928 265.9863-241.9326 266.2351-237.702 267.532-229.1035 269.2805-220.6948 270.8848-212.1814Z"/>
<path transform="matrix(1,0,0,1,2027.5557,1323.8414)" d="M0 0C.0588 2.6589 .0327 5.3242 .0327 7.9832 .0327 9.4304 .0327 10.8777 .0327 12.325 .0327 13.1567 .0654 14.0081-.0654 14.8267-.1833 15.5732-.3406 16.3-.4912 17.04-.7664 18.3892-1.0217 19.7446-1.2771 21.1003-1.5193 22.4102-1.7224 23.7263-1.958 25.0427-2.469 27.8718-3.1304 30.6616-4.0144 33.3989-4.8462 35.9661-6.0774 38.4351-7.4526 40.7402-8.9392 43.2288-10.4651 45.6912-11.9778 48.1536-13.3335 50.3669-14.5974 52.6328-15.9006 54.8792-17.2822 57.2693-18.6772 59.6467-20.0132 62.0696-20.6223 63.1765-21.2378 64.2898-21.9189 65.3572-22.6328 66.49-23.3923 67.6296-24.2634 68.6511-25.9727 70.6682-27.8062 72.5872-29.4304 74.3945-31.4932 76.7783-33.4316 79.2996-35.8875 81.2969-37.1775 82.3513-38.5071 83.3533-39.843 84.342-41.1331 85.2983-42.3774 86.2805-43.4907 87.2302-44.5581 88.1797-45.5732 89.1753-46.5488 90.2229-47.5117 91.2578-48.4417 92.3186-49.4109 93.3533-50.3931 94.4143-51.4736 95.3572-52.5803 96.2871-53.6543 97.1909-54.8398 97.9768-55.9924 98.7822-57.2039 99.627-58.3958 100.498-59.5549 101.4214-60.7009 102.3252-61.8142 103.2683-62.9536 104.1719-65.1213 105.8877-67.407 107.4595-69.3257 109.1426-69.4697 109.2734-69.6138 109.3979-69.7578 109.5222-70.6421 110.3345-71.4736 111.1792-72.2727 112.0632-73.0781 112.9998-73.7722 114.0542-74.6892 114.9055-75.678 115.8223-76.8044 116.5884-77.6689 117.3284-78.363 117.9441-79.0178 118.5859-79.5024 119.1099-79.6858 119.3193-79.8694 119.5288-79.9871 119.6665-80.8713 120.6946-81.657 121.8013-82.5347 122.7837-82.7966 123.0784-83.0652 123.373-83.3401 123.6677-83.5759 123.9492-83.792 124.2441-84.0146 124.5388-84.1785 124.8071-84.342 125.0691-84.5452 125.3115-84.7024 125.4949-84.8464 125.6914-84.9905 125.8877-85.0952 126.0449-85.2 126.2087-85.3113 126.3657-85.416 126.5295-85.521 126.6997-85.6125 126.8374-85.6257 126.8569-85.6387 126.8767-85.6519 126.8962-85.6584 126.916-85.6716 126.929-85.678 126.9421-85.7173 127.001-85.7632 127.0601-85.783 127.0862-85.7893 127.0994-85.7959 127.1123-85.8091 127.1255-85.8091 127.1255-85.8157 127.1321-85.8157 127.1387-85.8484 127.178-85.8745 127.2236-85.9333 127.322-86.0056 127.4268-86.0776 127.5315-86.1497 127.6362-86.2805 127.8262-86.418 128.0161-86.4377 128.0293-86.5098 128.1406-86.5884 128.252-86.667 128.3567-86.6736 128.3633-86.6799 128.3762-86.6865 128.3828-86.4509 128.9919-86.595 129.7319-87.0796 130.1968-87.4004 130.5046-87.813 130.6553-88.2322 130.6553-88.6709 130.6553-89.1162 130.4851-89.4502 130.1577-89.5222 130.0791-89.6008 130.0071-89.6794 129.9285-89.686 129.9285-89.686 129.9219-89.686 129.9219-93.7397 125.9729-97.7542 121.978-101.7881 118.0095-107.1582 112.7246-112.5281 107.4333-117.8982 102.1484-123.3599 96.7651-128.8215 91.3755-134.2898 86.0056-139.7515 80.6421-145.2131 75.2786-150.6487 69.8955-156.0188 64.5911-161.415 59.3125-166.7849 54.0081-172.3188 48.553-177.8655 43.1042-183.406 37.6492-188.979 32.1677-194.552 26.6799-200.1184 21.1921-205.5605 15.8352-211.0024 10.4783-216.4446 5.1213-221.6836-.0393-226.9226-5.1997-232.1682-10.3601-237.6038-15.717-243.0459-21.074-248.488-26.4243-254.0479-31.8992-259.6013-37.374-265.1611-42.8486-269.9746-47.5835-274.7485-52.3511-279.5947-57.0596-279.6013-57.0596-279.6079-57.0662-279.6145-57.0728-279.6208-57.0793-279.6274-57.0859-279.634-57.0923-280.2759-57.7407-280.2432-58.8345-279.5947-59.4631-279.2869-59.7578-278.9136-59.9084-278.5273-59.928-278.5208-59.9412-278.5076-59.9607-278.501-59.9739-278.0886-60.668-277.4402-61.179-276.8311-61.7029-276.4514-62.0303-276.0583-62.3511-275.6589-62.6523-273.8579-64.0144-271.9194-65.1606-270.0466-66.4048-269.0381-67.1055-268.0295-67.8062-267.1914-68.376-266.5625-68.8018-265.947-69.2339-265.3577-69.7119-264.395-70.6025-263.478-71.5325-262.594-72.4885-262.5286-72.5542-262.4697-72.6262-262.4565-72.6392-262.0833-73.0649-261.7034-73.4775-261.3562-73.864-260.3215-75.1147-259.3066-76.3721-258.1868-77.5444-256.9622-78.8279-255.7375-80.1116-254.6897-81.2705-254.6243-81.3491-254.552-81.4211-254.5193-81.467-254.4736-81.5195-254.4277-81.5652-254.3884-81.6177-254.3818-81.6243-254.3818-81.6243-254.3752-81.6309-254.2246-81.801-254.0806-81.9648-254.0674-81.9778-252.7446-83.4907-251.3433-84.9314-249.981-86.4246-249.8108-86.6208-249.6406-86.8174-249.5293-86.9419-248.2195-88.4417-247.1125-90.1179-245.8486-91.6702-244.4407-93.3989-242.9805-95.0886-241.6379-96.5947-239.8762-98.6445-238.1538-100.7271-236.3596-102.7441-235.5278-103.6807-234.624-104.5515-233.7205-105.416-232.8494-106.2412-231.9194-106.9812-231.0156-107.7539-228.9331-109.7383-227.106-111.9648-225.0432-113.9688-224.0281-114.9578-222.9607-115.894-221.9062-116.8438-220.7144-117.9111-219.5095-118.9722-218.4617-119.8889-217.2764-120.9368-216.0845-121.9583-214.8271-122.9146-213.5959-123.8574-212.3909-124.8005-211.3823-125.678-210.3411-126.6013-209.3325-127.5706-208.2849-128.4941-207.2764-129.3848-206.248-130.249-205.2068-131.1003-204.1721-131.9519-203.0981-132.7507-202.0569-133.5825-200.937-134.4797-199.8042-135.344-198.6646-136.2019-197.5381-137.0532-196.3921-137.8718-195.1675-138.5791-193.9363-139.2864-192.6855-139.9609-191.4412-140.6553-190.1577-141.3689-188.8806-142.0959-187.6233-142.8621-186.4773-143.5627-185.3181-144.2832-184.0869-144.8398-181.6245-145.9663-179.1033-146.9878-176.4902-147.7083-175.1414-148.0815-173.7661-148.363-172.3843-148.5662-170.9565-148.769-169.5225-148.8674-168.0881-148.9917-166.6409-149.1162-165.1936-149.2473-163.7463-149.4043-162.3909-149.5549-161.0417-149.7056-159.6794-149.7974-158.324-149.8823-156.9553-149.8496-155.5996-149.8496-154.1589-149.8496-152.7576-149.7581-151.3364-149.5027-150.0464-149.2734-148.7693-148.8542-147.5381-148.4089-146.2742-147.9504-145.0168-147.4595-143.7463-147.0076-140.5308-145.9204-137.217-145.1411-134.0149-144.0474-134.0083-144.0474-134.0017-144.041-133.9951-144.041-133.9297-144.0212-133.8706-143.9951-133.8379-143.9885-133.6809-143.9294-133.5237-143.8772-133.3992-143.8313-131.4084-143.1438-129.47-142.3186-127.5774-141.6113-127.5447-141.5981-127.5183-141.5916-127.4856-141.5786H-127.4661C-126.2808-141.179-125.0691-140.8516-123.8577-140.5308-122.5479-140.1902-121.2971-139.7449-120.0723-139.1816-118.8608-138.625-117.728-137.8982-116.595-137.1975-115.4817-136.5098-114.3552-135.855-113.196-135.2458-111.0154-134.2571-108.7495-133.4841-106.5818-132.4756-104.532-131.5261-102.6199-130.2754-100.6355-129.1882-99.2275-128.5005-97.7869-127.8916-96.3525-127.2563-94.9119-126.6145-93.5171-125.8352-92.3906-125.0691-92.0305-124.8267-91.6702-124.5908-91.4934-124.4666-90.6748-123.9165-89.8889-123.3269-89.0901-122.7441-88.3435-122.1941-87.5903-121.6768-86.8306-121.1594-85.5339-120.3145-84.2505-119.4631-82.9734-118.5923-81.7227-117.7344-80.5437-116.7651-79.3716-115.7959-78.1992-114.8267-77.0532-113.8052-75.8877-112.8096-74.6892-111.7881-73.4382-110.8384-72.168-109.9216-69.7908-108.3762-67.3413-106.9617-64.9053-105.5142-62.4297-104.0342-60.0723-102.3054-57.8457-100.4783-56.6931-99.5286-55.5535-98.5725-54.46-97.5574-53.3269-96.5161-52.207-95.4685-51.0742-94.4336-49.9937-93.458-48.9065-92.4888-47.8325-91.5063-46.752-90.5176-45.7239-89.4893-44.7087-88.4351-44.3943-88.114-44.1062-87.7734-43.8115-87.4395-43.4907-87.0664-43.1501-86.7126-42.8555-86.3262-42.4822-85.8286-42.1089-85.3374-41.7356-84.8396-41.3755-84.3616-41.0676-83.8247-40.7402-83.3203-39.5417-81.4736-38.5725-79.4893-37.6819-77.7212-37.302-76.9614-36.9221-76.2083-36.5161-75.4619-36.0249-74.5581-35.5012-73.6804-34.9641-72.803-34.6367-72.3577-34.3223-71.9058-33.9949-71.4604-33.6675-71.002-33.2744-70.5764-32.9143-70.1443-32.5278-69.7317-32.135-69.3191-31.7485-68.9065-31.3623-68.5005-30.9299-68.1206-30.6877-67.8718-30.2686-67.5049-29.8496-67.1318-29.594-66.9026-28.6052-66.0381-27.5967-65.2129-26.6733-64.283-26.1953-63.8049-25.7629-63.2876-25.3242-62.7769-24.5188-61.8533-23.8967-60.812-23.3008-59.7446-22.6328-58.5266-22.0498-57.2561-21.4539-56.0054-20.8777-54.7937-20.3145-53.5757-19.7317-52.3643-19.1685-51.1919-18.6248-50-18.0615-48.8213-17.7605-48.186-17.4592-47.5508-17.1514-46.9221-16.9875-46.575-16.7649-46.2148-16.6143-45.8416-16.4309-45.5271-16.2935-45.1802-16.1626-44.905-16.1296-44.8528-16.1035-44.8003-16.0774-44.7415-15.4749-43.6018-14.8855-42.4558-14.2634-41.3293-13.6018-40.144-12.9011-38.9849-12.1677-37.8455-11.5193-36.9023-10.8384-35.9661-10.2883-34.9575-9.9541-34.355-9.6333-33.759-9.332-33.137-9.0505-32.5344-8.8081-31.9253-8.5593-31.3098-8.3433-30.7661-8.1794-30.1899-7.9961-29.6333-7.8127-29.0962-7.6489-28.5461-7.4919-28.0027-7.1187-26.7061-6.719-25.4158-6.3589-24.3418-5.894-23.0386-5.416-21.7419-4.833-20.4846-4.2371-19.188-3.5889-17.9109-2.9731-16.6208-1.7354-14.021-1.0872-11.1721-.6941-8.3301-.5107-6.9941-.3406-5.6582-.2161-4.3157-.0852-2.8748-.0393-1.4341 0 0Z"/>
<path transform="matrix(1,0,0,1,1878.2232,1513.7897)" d="M0 0C-.7922 .7859-1.5847 1.5718-2.3772 2.3574-8.1663 8.1074-13.949 13.8442-19.738 19.5874-33.6216 33.3662-47.4919 47.1448-61.3689 60.917-75.7893 75.2456-90.2229 89.5615-104.6433 103.8901-119.0115 118.1665-133.3926 132.4365-147.7737 146.7063-162.3447 161.1726-176.9094 175.6389-191.4805 190.1052-206.0449 204.5715-220.603 219.051-235.1873 233.5042-249.8042 247.9836-264.3948 262.5022-278.9922 277.0012-293.6221 291.5266-308.2588 306.0518-322.8887 320.5837-336.7134 334.3164-350.551 348.0427-364.3755 361.7756-377.5845 374.8928-390.7869 388.0037-403.9958 401.1143-417.2112 414.2314-430.4202 427.3618-443.6423 440.4727-451.2913 448.0627-458.9336 455.6462-466.5762 463.2429-467.7026 464.3625-468.8354 465.4824-469.9619 466.6023-471.5598 466.6089-473.1511 466.6089-474.749 466.6155-478.8813 466.6221-483.0137 466.635-487.1394 466.6416-498.3508 466.6677-509.5559 466.6941-520.761 466.7136-532.1101 466.74-543.4592 466.7661-554.8081 466.7922-566.2686 466.8184-577.7356 466.8381-589.196 466.8708-600.7153 466.897-612.2412 466.9102-623.7605 466.9429-633.3479 466.969-642.9485 466.9888-652.5425 467.0083-653.6624 467.0083-654.7756 467.0149-655.8955 467.0149-655.9021 465.895-655.9021 464.7817-655.9087 463.6619-655.9153 461.6841-655.9219 459.7065-655.9282 457.7288-655.9675 447.5388-656.0002 437.3555-656.0461 427.1655-656.092 417.2046-656.1313 407.2375-656.1641 397.2766-656.1968 387.2832-656.2427 377.2898-656.2754 367.2961-656.3081 356.8445-656.3474 346.386-656.3933 335.9275-656.4456 325.325-656.4849 314.7224-656.5176 304.1265-656.5439 296.0715-656.5701 288.0164-656.6094 279.9614-656.616 278.4028-656.6226 276.8442-656.6289 275.2856-655.7319 274.4014-654.8413 273.5239-653.9441 272.6465-653.7278 272.4368-653.5117 272.2207-653.2957 272.0046-646.9434 265.7571-640.5911 259.5095-634.2451 253.2554-621.5078 240.7275-608.7703 228.2063-596.0396 215.6719-582.8044 202.6331-569.5627 189.6074-556.3145 176.582-542.5293 163.0259-528.7571 149.4634-514.9783 135.9138-501.6777 122.8293-488.3772 109.7383-475.0764 96.6538-462.0444 83.8247-449.0056 71.0022-435.9736 58.1731-422.1753 44.5974-408.377 31.0281-394.5852 17.4526-380.0337 3.1433-365.4954-11.1724-350.9438-25.4814-336.4973-39.6924-322.0571-53.9033-307.6104-68.1206-293.1572-82.3447-278.6909-96.5623-264.2378-110.7927-249.8435-124.9709-235.4426-139.136-221.0352-153.301-211.0352-163.1309-201.0417-172.9736-191.0483-182.8101-190.2493-183.5957-189.4568-184.3752-188.658-185.1609-187.8589-184.3752-187.0601-183.5894-186.261-182.8101-185.3638-181.9258-184.4668-181.0417-183.5696-180.1643-176.9749-173.6875-170.3867-167.2107-163.7856-160.7471-157.1777-154.2834-150.5896-147.7935-143.9819-141.3167-137.5051-134.9578-131.0349-128.5923-124.5518-122.24-118.0095-115.8352-111.4802-109.4175-104.9512-102.9998-98.3105-96.4771-91.6636-89.9609-85.0232-83.4448-78.2319-76.7783-71.4539-70.1182-64.6563-63.458-57.9634-56.896-51.2639-50.3276-44.5776-43.7527-37.7996-37.0859-31.002-30.4324-24.2175-23.7656-17.5769-17.2432-10.9495-10.7205-4.2959-4.2109-3.6672-3.5955-3.032-2.9731-2.4033-2.3511-1.5979-1.5718-.7988-.7859 0 0Z"/>
</g>
</svg>
