<svg xmlns="http://www.w3.org/2000/svg" xmlns:xlink="http://www.w3.org/1999/xlink" xmlns:inkscape="http://www.inkscape.org/namespaces/inkscape" version="1.1" width="2100" height="2100" viewBox="0 0 2100 2100">
<defs>
<clipPath id="clip_0">
<path d="M249.294 248.467H1850.51V1851.37H249.294Z"/>
</clipPath>
</defs>
<g clip-path="url(#clip_0)">
<path transform="matrix(1,0,0,1,1695.6597,1469.987)" d="M0 0C-.0176-19.321-.0354-38.6357-.0474-57.9507-.0886-103.1233-.124-148.2959-.1597-193.4744-.1951-238.5762-.2307-283.6836-.272-328.7913-.3076-374.3247-.343-419.8643-.3784-465.3976-.4199-511.6588-.4553-557.9199-.491-604.1751-.5264-648.2237-.5679-692.2723-.6033-736.321-.6328-779.216-.6682-822.111-.7039-865.012-.7393-906.1679-.7749-947.3237-.8044-988.4796-.8281-1013.6156-.8635-1038.7515-.8752-1063.8876-20.8884-1063.8699-40.9014-1063.8579-60.9143-1063.8462-116.0728-1063.8047-171.2371-1063.7693-226.4072-1063.7338-281.4829-1063.6983-336.5645-1063.6627-391.6458-1063.6213-447.2478-1063.5859-502.8618-1063.5504-558.4639-1063.5149-614.9534-1063.4734-671.4487-1063.438-727.9263-1063.4025-781.7181-1063.367-835.5041-1063.3256-889.296-1063.29-941.6799-1063.2605-994.0638-1063.225-1046.4478-1063.1895-1096.7019-1063.154-1146.9622-1063.1185-1197.2222-1063.0889-1227.8894-1063.0652-1258.5626-1063.0298-1289.2299-1063.018-1289.2239-1036.5628-1289.1765-1010.1075-1289.153-983.6523-1289.1174-946.4482-1289.0879-909.2382-1289.0524-872.0341-1289.0169-833.3155-1288.9815-794.591-1288.9459-755.8725-1288.9104-715.6868-1288.875-675.5012-1288.8394-635.3156-1288.804-593.864-1288.7684-552.4183-1288.727-510.9725-1288.6915-469.6806-1288.656-428.3887-1288.6146-387.0911-1288.5791-346.4202-1288.5437-305.7554-1288.508-265.0847-1288.4727-223.9287-1288.4312-182.7729-1288.3958-141.6172-1288.3839-126.0884-1288.3721-110.5535-1288.3543-95.0188-1279.4926-95.0305-1270.6248-95.0364-1261.7631-95.0425-1215.0405-95.0779-1168.312-95.1074-1121.5895-95.1431-1072.9622-95.1785-1024.3347-95.2141-975.7073-95.2495-925.2401-95.2849-874.7728-95.3206-824.3057-95.356-772.253-95.3916-720.2004-95.427-668.1536-95.4685-616.2961-95.5039-564.4387-95.5393-512.5754-95.5808-461.4988-95.6162-410.4282-95.6519-359.3518-95.6873-307.6719-95.7229-255.9861-95.7642-204.3-95.7996-168.5808-95.8232-132.8499-95.8469-97.1304-95.8765-96.5684-96.2434-95.7698-96.2314-95.2729-95.7405-95.1902-95.6577-95.1013-95.5688-95.0186-95.4861-95.0127-95.4802-95.0127-95.4802-95.0066-95.4744-95.0066-95.4744-95.0007-95.4685-94.9949-95.4624-91.3093-91.7769-87.6416-88.0679-83.9561-84.3645-79.6848-80.0815-75.4197-75.7925-71.1484-71.4978-66.9307-67.2502-62.6948-63.0088-58.4771-58.7612-54.1348-54.3894-49.7869-50.0295-45.4446-45.6636-40.9724-41.1736-36.5059-36.6836-32.0396-32.1936-27.5376-27.6738-23.0476-23.1426-18.5398-18.6287-14.1147-14.1978-9.7017-9.7493-5.2825-5.3066-3.5198-3.5376-1.7627-1.7688 0 0ZM154.543 354.5483C154.5608 362.8894 154.5784 371.2307 154.6021 379.5718 154.6021 380.394 153.9041 381.0803 153.0818 381.0803 153.0581 381.0803 153.0286 381.0803 153.0049 381.0745 152.8689 381.1157 152.7271 381.1335 152.585 381.1335 152.218 381.1335 151.8513 381.0034 151.5793 380.7312 144.0544 373.2065 136.5415 365.6521 129.0166 358.1272 119.8472 348.9519 110.6897 339.7588 101.5203 330.5776 91.6763 320.7041 81.8208 310.8308 71.9651 300.9634 62.0623 291.0486 52.1711 281.1218 42.2681 271.2012 32.1404 261.0618 22.0244 250.9163 11.8967 240.7766 1.6389 230.4951-8.6311 220.2136-18.8889 209.926-29.2769 199.5024-39.6885 189.1084-50.0767 178.679-60.595 168.1135-71.1484 157.5657-81.6785 147.0061-92.1138 136.553-102.5374 126.0999-112.9729 115.6526-123.5737 105.0459-134.1631 94.427-144.7522 83.8142-153.0342 75.5144-161.3223 67.2146-169.5984 58.9148-212.0674 58.9502-254.5425 58.98-297.0176 59.0095-348.2539 59.0449-399.49 59.0806-450.7322 59.1218-502.4536 59.1572-554.1809 59.1929-605.9023 59.2283-658.4518 59.2698-711.0073 59.3052-763.545 59.3408-813.5804 59.3762-863.6216 59.4175-913.657 59.4531-962.385 59.4827-1011.113 59.5183-1059.841 59.5537-1106.593 59.5891-1153.3452 59.6248-1200.0973 59.6543-1235.4735 59.6838-1270.8555 59.7312-1306.2317 59.7312-1306.5215 59.7312-1306.7996 59.678-1307.0481 59.5833-1308.1425 59.5537-1309.2368 59.4768-1310.3255 59.3999-1316.4127 59.2935-1322.5591 60.2339-1328.6702 59.6426-1349.9076 58.4119-1369.4356 48.5801-1386.2776 36.1748-1388.6853 34.2402-1391.6077 33.0986-1393.968 31.1108-1397.7483 27.7209-1402.0076 24.9585-1405.6753 21.5273-1414.7324 12.8135-1421.6538 2.2952-1428.315-8.2881-1431.255-12.6895-1433.0415-17.6941-1435.1239-22.5271-1438.7326-30.3892-1441.4951-38.6062-1442.8972-47.1545-1443.8379-49.9053-1444.459-52.739-1444.5714-55.6494-1444.9913-58.1934-1445.5298-60.8081-1444.9678-63.3635-1444.8672-64.5764-1445.4469-65.7595-1445.3345-66.9663-1445.2754-67.4751-1445.0269-67.8359-1444.6956-68.0608-1444.7192-95.8706-1444.7429-123.6865-1444.7666-151.4963-1444.808-192.3564-1444.8435-233.2166-1444.879-274.0825-1444.9144-314.8774-1444.95-355.6785-1444.9913-396.4792-1445.0269-437.6646-1445.0624-478.856-1445.0979-520.0413-1445.1393-561.8835-1445.1748-603.7314-1445.2102-645.5676-1445.2457-685.4101-1445.2871-725.2526-1445.3226-765.0952-1445.3523-803.8965-1445.3877-842.6978-1445.4232-881.4992-1445.4588-918.727-1445.4943-955.9548-1445.5238-993.1826-1445.5534-1020.6908-1445.6007-1048.1931-1445.6007-1075.7013-1445.8847-1076.1627-1445.8965-1076.8075-1445.8847-1077.3281-1446.1154-1081.2207-1445.1985-1084.9653-1444.9026-1088.8106-1444.5122-1092.6795-1444.3347-1096.5425-1444.2105-1100.4232-1443.8556-1105.3865-1442.4417-1110.1782-1441.4656-1115.0292-1439.2886-1123.9797-1435.4849-1132.4274-1431.7461-1140.7922-1425.9663-1152.6238-1419.1632-1164.4255-1409.2307-1173.2697-1400.3038-1182.4509-1389.1054-1188.692-1378.3032-1195.3532-1372.0798-1199.5889-1365.1052-1202.458-1358.4146-1205.8418-1347.8372-1210.9589-1336.7688-1215.3543-1325.2981-1217.8862-1314.5197-1219.2113-1303.7175-1221.0216-1292.874-1220.8737-1290.9158-1221.0216-1288.9695-1220.7554-1287.0232-1220.7849-1285.8933-1221.27-1284.0122-1221.1636-1283.0183-1220.7612-1282.196-1220.6962-1281.634-1220.7671-1280.865-1220.6016-1279.9835-1220.4004-1279.114-1220.1697-1278.2384-1219.9508-1245.6189-1219.9627-1213.0055-1220.004-1180.386-1220.0277-1133.6636-1220.0632-1086.9292-1220.0928-1040.2066-1220.1283-991.5851-1220.1638-942.9518-1220.1992-894.3244-1220.2348-843.863-1220.2703-793.3959-1220.3058-742.9286-1220.3412-690.8702-1220.3767-638.8235-1220.4122-586.7708-1220.4536-534.9133-1220.4891-483.0559-1220.5247-431.1926-1220.566-380.116-1220.6016-329.0513-1220.637-277.9749-1220.6725-226.2888-1220.708-174.603-1220.7494-122.9172-1220.7849-87.1387-1220.8086-51.3545-1220.8323-15.5701-1220.8618-15.1973-1220.8618-14.8484-1220.7731-14.5527-1220.6193-13.0322-1220.7612-11.4883-1220.6962-9.9739-1220.5247-5.5015-1220.6134-1.0173-1220.6074 3.4431-1220.9801 7.0754-1221.0156 10.6838-1220.3353 14.322-1220.6725 22.2788-1221.1517 30.1882-1219.7319 38.0088-1218.4778 48.2312-1216.3363 57.5366-1211.4085 66.7888-1206.7528 76.1179-1201.6179 85.2932-1196.276 94.0544-1190.301 109.0923-1178.7122 122.5034-1164.9285 132.8796-1148.9796 140.9663-1136.1306 144.9004-1121.1283 147.8169-1106.3862 148.2664-1095.9154 149.9583-1085.551 150.8516-1075.1333 151.1179-1073.6841 150.8103-1072.2346 150.7332-1070.7971 151.0349-1070.519 151.2302-1070.1168 151.2302-1069.6791 151.2302-1050.2695 151.325-1030.86 151.3662-1011.4504 151.4727-962.1899 151.5969-912.9296 151.7092-863.6691 151.8396-804.8431 151.9873-746.0169 152.1177-687.1848 152.2476-627.8262 152.3958-568.4676 152.5317-509.1091 152.6677-449.3364 152.8157-389.5637 152.9517-329.791 153.0876-269.0422 153.2356-208.2993 153.3718-147.5505 153.5078-86.8076 153.6616-26.0649 153.7976 34.6841 153.9338 93.8176 154.0698 152.9514 154.2117 212.0911 154.3242 259.5769 154.4187 307.0625 154.543 354.5483Z"/>
<path transform="matrix(1,0,0,1,1126.3938,501.4909)" d="M0 0V792.4493H-153.1943V0H0Z"/>
<path transform="matrix(1,0,0,1,1446.0213,974.3127)" d="M0 0H-792.4494V-153.1941H0V0Z"/>
</g>
</svg>
