<svg xmlns="http://www.w3.org/2000/svg" xmlns:xlink="http://www.w3.org/1999/xlink" xmlns:inkscape="http://www.inkscape.org/namespaces/inkscape" version="1.1" width="2100" height="2100" viewBox="0 0 2100 2100">
<defs>
<clipPath id="clip_0">
<path d="M248.303 164.662H1851.7V1935.34H248.303Z"/>
</clipPath>
</defs>
<g clip-path="url(#clip_0)">
<path transform="matrix(1,0,0,1,1048.725,1935.0879)" d="M0 0C-.0078 0-.0078-.0078-.0156-.0078-10.0781-.0078-20.1367-.0586-30.2109-.0781-31.8516-.082-33.4883-.0859-35.1289-.0898-45.5156-.1133-55.9063-.1367-66.293-.1719-83.2852-.2148-100.2773-.2539-117.2656-.2969-126.6602-.3203-136.0508-.3437-145.4453-.3672-171.9414-.4219-198.4414-.4844-224.9375-.5625-252.5937-.6289-280.25-.6953-307.8984-.7617-335.3125-.8242-362.7187-.8906-390.1328-.9688-417.1484-1.0352-444.1602-1.1016-471.1758-1.168-496.9648-1.2305-522.7539-1.2852-548.543-1.3633-574.7617-1.4414-600.9844-1.4805-627.207-1.5586-635.4766-1.5742-643.7422-1.5938-652.0117-1.6172-652.9492-1.0898-654.1602-1.1602-655.3086-1.2305-655.832-1.2617-656.3437-1.293-656.8086-1.2656-659.9141-1.6836-663.1094-1.5547-666.293-1.4297-669.4375-1.3086-672.5703-1.1836-675.582-1.5781-683.1719-3.0586-690.918-4.918-698.0195-8.0234-704.6602-10.4531-711.4102-12.668-717.4883-16.3789-736.2305-26.918-752.0781-42.1094-765.2031-58.9922-771.207-66.3203-776.4727-74.3164-781.1406-82.5078-789.8398-96.2148-795.5234-111.7969-798.2812-127.7891-798.9531-134.2969-799.0156-140.832-798.8555-147.3633-798.8516-153.3281-799.582-159.3906-798.8437-165.3047-798.3008-167.1133-800.1719-169.8516-798.4766-170.9766-798.4687-201.4414-798.4375-231.9023-798.4102-262.3672-798.3789-309.6602-798.3516-356.9648-798.3203-404.2578-798.2812-454.1602-798.2461-504.0547-798.2148-553.9531-798.1836-605.7773-798.1484-657.6055-798.1094-709.4336-798.0781-760.0234-798.0508-810.6133-798.0117-861.2031-797.9648-910.5352-797.9414-959.8672-797.9062-1009.1992-797.8828-1056.9336-797.8477-1104.6602-797.8164-1152.3867-797.7773-1199.4492-797.7578-1246.5-797.7187-1293.5586-797.6914-1327.7383-797.6641-1361.9219-797.6523-1396.1094-797.6445-1400.3711-797.6445-1404.6328-797.6445-1408.8984-797.8437-1408.9375-798.043-1409.0039-798.2266-1409.1133-799.0781-1409.6133-799.1562-1410.582-799.2031-1411.4649-799.2305-1412.0938-799.2383-1412.7305-799.2383-1413.3594-799.2578-1416.1524-799.25-1418.9492-799.25-1421.7383-799.25-1424.3672-799.25-1426.9922-799.25-1429.625-799.25-1430.9922-799.2773-1432.3672-799.1523-1433.7383-799.0352-1435.0586-798.7187-1436.375-798.4883-1437.6797-798.2812-1438.8906-798.1367-1440.1094-797.9609-1441.3203-797.7773-1442.6172-797.5-1443.8945-797.2734-1444.9609-797.0352-1446.1602-796.8125-1447.3594-796.6289-1448.5625-796.4453-1449.7813-796.3086-1451.0117-796.0664-1452.1992-795.5117-1454.8789-794.7578-1457.5039-794.1406-1460.168-793.5195-1462.8594-793.0078-1465.5703-792.1055-1468.1914-792.0742-1468.2969-792.0391-1468.3945-792-1468.4922-791.9727-1468.5781-791.9492-1468.6563-791.9219-1468.7422-791.9102-1468.7813-791.8945-1468.8242-791.875-1468.8633-791.8555-1468.9258-791.8359-1468.9844-791.8086-1469.0352-791.7969-1469.0742-791.7852-1469.1133-791.7695-1469.1524-791.75-1469.2188-791.7305-1469.2774-791.707-1469.3438-791.6914-1469.3828-791.6719-1469.4297-791.668-1469.4414-791.0977-1471.0938-790.3516-1472.6953-789.5703-1474.2617-788.7734-1475.8672-787.9609-1477.4688-787.1484-1479.0742-786.0664-1481.2422-784.9609-1483.3984-783.957-1485.3672-783.2656-1486.7813-782.5703-1488.1992-781.9102-1489.625-781.2734-1490.9922-780.6523-1492.3672-779.9961-1493.7383-779.3555-1495.0938-778.6328-1496.418-777.7969-1497.668-776.8984-1498.9961-775.9766-1500.3047-775.0664-1501.6211-774.2539-1502.8594-773.4531-1504.1055-772.7461-1505.1524-772.6406-1505.3164-772.5312-1505.4805-772.4258-1505.6367-772.3555-1505.7344-772.2891-1505.832-772.2539-1505.8867-772.1836-1505.9961-772.1133-1506.1016-772.0391-1506.207-770.9609-1507.8047-769.7227-1509.2656-768.4375-1510.6914-767.8164-1511.3789-767.1523-1512.0234-766.5117-1512.6914-765.8125-1513.418-765.1172-1514.1563-764.4375-1514.9024-762.6758-1516.9258-761.0195-1519.0274-759.3164-1521.0977-757.5078-1523.3008-755.6211-1525.4063-753.6562-1527.4688-752.6797-1528.4922-751.625-1529.4492-750.625-1530.4492-749.6758-1531.3945-748.7852-1532.3828-747.8594-1533.3594-745.9766-1535.3555-744.0352-1537.3203-742.0703-1539.25-741.043-1540.2539-740.0078-1541.2539-739.0156-1542.2891-738.0195-1543.3242-737.0508-1544.3789-736.0586-1545.4219-734.1875-1547.4063-732.3359-1549.4414-730.25-1551.2109-729.6875-1551.6875-729.125-1552.1524-728.5508-1552.6055-727.9727-1553.0625-727.375-1553.4805-726.7812-1553.9063-725.6211-1554.7383-724.3789-1555.4531-723.1797-1556.207-720.8984-1557.6406-718.6016-1559.0547-716.3359-1560.5039-715.0273-1561.3477-713.7148-1562.1719-712.418-1563.0234-710.2695-1564.543-708.1953-1566.168-706.1211-1567.7734-704.9609-1568.6641-703.8086-1569.5859-702.5781-1570.3633-701.4219-1571.1055-700.2461-1571.7656-699.0352-1572.4024-697.7617-1573.0625-696.4922-1573.7109-695.2031-1574.332-693.9961-1574.9102-692.7734-1575.4649-691.5625-1576.0352-689.0586-1577.2266-686.5117-1578.3945-683.8789-1579.293-683.0469-1579.5742-682.1914-1579.7891-681.3398-1580.0195-680.4609-1580.2539-679.582-1580.4961-678.707-1580.7109-676.9766-1581.1445-675.2227-1581.457-673.4727-1581.8047-671.8047-1582.1875-670.1602-1582.6524-668.4883-1583.0313-666.7461-1583.4297-664.9453-1583.4805-663.1797-1583.6992-661.3711-1583.9141-659.5898-1584.2617-657.7812-1584.457-656.0352-1584.6484-654.2773-1584.7149-652.5234-1584.8047-651.1953-1584.9219-649.8789-1585.1016-648.5547-1585.2774-647.2383-1585.4649-645.9414-1585.6953-644.6133-1585.7695-642.0195-1585.9063-639.4062-1585.8477-636.8047-1585.8477-634.2187-1585.8477-631.6406-1585.8477-629.0547-1585.8477-626.4844-1585.8477-623.9062-1585.9258-621.3398-1585.7422-620.9336-1585.7149-620.5312-1585.6836-620.1328-1585.6563-617.6719-1585.5195-615.2031-1585.5899-612.7383-1585.5117-611.4687-1585.4727-610.1992-1585.4141-608.9297-1585.3945-607.7031-1585.375-606.4805-1585.375-605.2539-1585.375-602.8516-1585.375-600.4531-1585.375-598.0508-1585.375-596.832-1585.375-595.6094-1585.3867-594.3906-1585.3477-593.1211-1585.3086-591.8555-1585.2109-590.6719-1585.1328-589.457-1585.0547-588.2461-1585.0078-587.0352-1584.9961-586.6641-1584.9961-586.2812-1584.9961-585.9102-1584.9961-585.0781-1584.9961-584.2461-1585-583.4453-1584.9492-583.3086-1584.9414-583.1719-1584.9375-583.0625-1584.9219-581.6797-1584.8399-580.3047-1584.6211-578.9219-1584.5156-577.1797-1584.4375-575.4375-1584.4375-573.6875-1584.4453-571.7461-1584.4453-569.8008-1584.4531-567.8477-1584.3399-565.9023-1584.2344-563.8984-1584.1094-562-1583.6133-560.1133-1583.1211-558.2656-1582.5195-556.5703-1582.1602-554.7969-1581.8242-553-1581.5117-551.4219-1581.3984-550.0039-1581.3281-548.5742-1581.3477-547.1484-1581.3477-545.5312-1581.3477-543.9102-1581.3399-542.293-1581.3555-540.7617-1581.3594-539.2227-1581.418-537.6914-1581.418-537.4687-1581.4258-537.2461-1581.418-537.0234-1581.418-537.0234-1589.3438-537.0234-1597.2734-537.0234-1605.1992-537.0234-1614.7734-537.0234-1624.3399-537.0234-1633.9141-537.0234-1643.1758-537.0234-1652.4336-537.0234-1661.6953-537.0234-1671.3086-537.0234-1680.9297-537.0234-1690.543-537.0234-1699.9649-537.0234-1709.3906-537.0234-1718.8125-537.0234-1727.4102-537.0234-1736.0156-537.0234-1744.6211-537.0234-1749.6797-537.0234-1754.7344-537.0234-1759.7891-537.0234-1761.5508-537.0234-1763.3047-537.0234-1765.0625-537.0234-1765.3945-536.9258-1765.7109-536.7461-1765.9727-536.6289-1766.7774-535.9102-1767.3945-535.0859-1767.3945-534.9414-1767.3945-534.7891-1767.3945-534.6445-1767.3984-534.5977-1767.3984-534.5547-1767.3984-534.5078-1767.3945-527.2969-1767.3984-520.0937-1767.4453-512.8828-1767.4453-505.3789-1767.4453-497.8789-1767.4766-490.3828-1767.4961-482.8164-1767.5156-475.2461-1767.5352-467.6836-1767.5508-460.375-1767.5625-453.0742-1767.582-445.7656-1767.6016-438.1406-1767.6133-430.5195-1767.6367-422.8984-1767.6563-415.4102-1767.668-407.9258-1767.6797-400.4414-1767.6992-393.2891-1767.7188-386.1367-1767.7383-378.9883-1767.7539-372.1055-1767.7578-365.2227-1767.7852-358.3398-1767.7969-356.8242-1767.8047-355.3047-1767.7969-353.793-1767.8125-353.7852-1767.8125-353.7812-1767.8125-353.7656-1767.8125-353.7422-1767.8125-353.707-1767.8125-353.6836-1767.8125-352.9102-1767.8125-352.25-1767.25-352.0703-1766.5234-351.4102-1766.293-350.9531-1765.6524-350.9375-1764.9219-350.9375-1756.2461-350.9102-1747.5703-350.8906-1738.8984-350.8711-1729.5-350.8711-1720.1094-350.8477-1710.7188-350.8125-1700.8828-350.8125-1691.0391-350.793-1681.2031-350.7734-1671.4531-350.7422-1661.7031-350.7422-1651.9492-350.7422-1642.2188-350.7109-1632.4883-350.6875-1622.75-350.6641-1613.3008-350.6367-1603.8438-350.6367-1594.3945-350.6367-1590.1836-350.625-1585.9727-350.6172-1581.7617-329.125-1581.8438-307.625-1581.9297-286.1328-1582.0078-252.5703-1582.1445-219.0078-1582.2852-185.4453-1582.4102-151.8359-1582.5313-118.2344-1582.6719-84.625-1582.8086-49.5352-1582.9531-14.4492-1583.082 20.6328-1583.2188 54.2422-1583.3594 87.8438-1583.4961 121.4453-1583.6211 155.2695-1583.75 189.0977-1583.8945 222.9258-1584.0274 255.7187-1584.1524 288.5117-1584.2891 321.3086-1584.4141 332.168-1584.457 343.0312-1584.4961 353.8906-1584.543 353.8906-1592.2188 353.8906-1599.8867 353.8906-1607.5625 353.8906-1617.1367 353.8906-1626.7031 353.8906-1636.2774 353.8906-1645.5391 353.8906-1654.8008 353.8906-1664.0586 353.8906-1673.6719 353.8906-1683.293 353.8906-1692.9063 353.8906-1702.332 353.8906-1711.7539 353.8906-1721.1758 353.8906-1729.7774 353.8906-1738.3828 353.8906-1746.9883 353.8906-1752.043 353.8906-1757.0977 353.8906-1762.1524 353.8906-1763.9141 353.8906-1765.6719 353.8906-1767.4258 353.8906-1767.7539 353.9883-1768.0586 354.1523-1768.3242 354.2695-1769.1328 354.9922-1769.7578 355.8203-1769.7578 355.9648-1769.7578 356.1172-1769.7578 356.2617-1769.7617 356.3125-1769.7617 356.3594-1769.7617 356.4062-1769.7578 363.6133-1769.7617 370.8203-1769.8086 378.0234-1769.8086 385.5273-1769.8086 393.0273-1769.8399 400.5234-1769.8633 408.0859-1769.8828 415.6602-1769.9024 423.2227-1769.9141 430.5312-1769.9258 437.832-1769.9453 445.1406-1769.9649 452.7656-1769.9805 460.3867-1770 468.0078-1770.0195 475.4961-1770.0313 482.9805-1770.043 490.4648-1770.0664 497.6172-1770.0859 504.7695-1770.1055 511.918-1770.1172 518.8008-1770.125 525.6836-1770.1484 532.5664-1770.1641 534.0859-1770.168 535.6016-1770.1641 537.1172-1770.1758 537.125-1770.1758 537.1328-1770.1758 537.1406-1770.1758 537.1641-1770.1758 537.1992-1770.1758 537.2227-1770.1758 537.9961-1770.1758 538.6562-1769.6133 538.8359-1768.8867 539.4961-1768.6563 539.9609-1768.0156 539.9727-1767.2891 539.9727-1758.6094 540-1749.9336 540.0195-1741.2617 540.0391-1731.8672 540.0391-1722.4727 540.0664-1713.082 540.0977-1703.2461 540.0977-1693.4024 540.1172-1683.5664 540.1367-1673.8164 540.1719-1664.0664 540.1719-1654.3125 540.1719-1644.582 540.2031-1634.8516 540.2227-1625.1133 540.25-1615.6641 540.2773-1606.207 540.2773-1596.7578 540.2773-1592.2695 540.2891-1587.7852 540.3008-1583.3008 542.6445-1583.2656 544.9961-1583.2539 547.3477-1583.3399 553.4727-1584.3203 559.6523-1584.9219 565.8359-1585.375 567.8711-1585.5 570.0547-1584.6289 572.043-1584.4727 575.0625-1584.3125 578.0937-1584.3984 581.0859-1584.5899 586.7383-1585.5078 592.5156-1585 598.1406-1585.9453 604.3359-1587.1563 610.7461-1586.6641 617.0273-1587.1094 623.1172-1586.875 629.4062-1586.168 635.418-1586.8086 643.7539-1588.3672 651.8867-1586.3555 660.1719-1585.625 668.5859-1584.8516 677.0273-1583.5469 685.2812-1581.7227 690.9883-1579.5352 696.6758-1577.2734 702.3906-1575.0742 711.207-1571.6602 718.1016-1564.9805 726.0312-1560.0313 733.7344-1553.6914 742.3789-1548.375 749.1094-1540.9531 756.3516-1533.1406 762.4375-1524.3086 770.2031-1516.9805 773.3359-1513.2539 775.3437-1509.2109 778.6445-1505.75 782.2266-1501.3086 784.8984-1496.1524 787.9648-1491.3789 790.4258-1488.1524 793.2227-1484.9414 793.6367-1480.7383 794.5586-1476.6172 796.1719-1472.5586 796.418-1468.3281 797.7148-1459.7305 799.4648-1451.3203 801.0703-1442.8086 802.5234-1429.4297 801.4492-1415.8477 800.9492-1402.5195 800.2773-1390.8477 800.4531-1379.3281 800.2227-1367.6719 800.7148-1357.7461 800.9844-1347.8555 800.8398-1337.9141 800.8281-1330.3047 801.1094-1322.668 800.0273-1315.125 799.6797-1308.3555 800.2227-1301.3945 799.6523-1294.6875 798.7305-1282.6758 800.0273-1270.6211 799.5703-1258.6211 799.3984-1246.3242 798.2344-1234.1094 798.5-1221.832 798.4766-1203.6836 798.5469-1185.5391 798.4766-1167.3984 798.1953-1156.0664 797.7344-1144.7266 798.3242-1133.4102 798.1406-1120.4102 798.9062-1107.4609 799.1953-1094.5039 799.125-1073.4024 799.0234-1052.3203 799.3086-1031.2344 798.9062-1001.9609 801.6133-972.5156 799.2305-943.3281 799.0469-941.043 798.8281-938.7578 798.5742-936.4727 798.1797-924.7383 797.5859-912.8594 798.7422-901.207 799.2969-899.4648 798.9297-897.4922 799.2305-895.75 799.3008-895.3398 799.4062-894.9414 799.5742-894.5625 799.5742-894.3594 799.5742-894.1484 799.5742-893.9453 799.5742-893.4336 799.5742-892.918 799.582-892.3984 799.5898-892.0156 799.5937-891.6289 799.6094-891.2422 799.6094-891.0234 799.6133-890.8086 799.6211-890.5937 799.4922-890.5937 799.3594-890.5937 799.2305-890.5937V-184.1241L799.0078-183.5156 798.7852-182.8867 798.5703-182.2734 798.3633-181.668 798.1641-181.0742 797.9727-180.4844 797.7852-179.9023 797.6016-179.3203 797.4219-178.7422 797.2422-178.1602 797.0664-177.5781 796.8945-176.9961 796.7227-176.418 796.5547-175.8477 796.3867-175.2852 796.2227-174.7227 796.0547-174.1641 795.8945-173.6211 795.7305-173.082 795.5703-172.5547 795.4102-172.0391 795.2578-171.543 795.1055-171.0586 794.9531-170.5859 794.8047-170.1328 794.6641-169.6953 794.5195-169.2695 794.3789-168.8555 794.2422-168.4531 794.1016-168.0625 793.9648-167.6836 793.8242-167.3086 793.6797-166.9336 793.5312-166.5664 793.3789-166.1953 793.2227-165.8203 793.0586-165.4453 792.8906-165.0703 792.7187-164.6875 792.5352-164.2969 792.3477-163.8984 792.1523-163.4883 791.9492-163.0664 791.7383-162.625 791.5195-162.168 791.2969-161.6992 791.0664-161.2227 790.8359-160.7305 790.6016-160.2305 790.3672-159.7227 790.1367-159.2109 789.9062-158.7031 789.6836-158.1953 789.4609-157.6836 789.2422-157.1797 789.0312-156.6836 788.8242-156.1914 788.6211-155.7031 788.4219-155.2227 788.2266-154.75 788.0312-154.2773 787.8359-153.8047 787.6445-153.332 787.457-152.8672 787.2695-152.4062 787.0781-151.9414 786.8906-151.4805 786.7031-151.0273 786.5195-150.5742 786.3359-150.1289 786.1484-149.6797 785.9648-149.2422 785.7812-148.8047 785.5937-148.3633 785.4062-147.9297 785.2187-147.5 785.0273-147.0742 784.8398-146.6523 784.6445-146.2344 784.4531-145.8203 784.2578-145.4102 784.0586-145 783.8594-144.5937 783.6562-144.1875 783.4492-143.7812 783.2422-143.3789 783.0312-142.9844 782.8242-142.5898 782.6094-142.1914 782.3906-141.793 782.168-141.3906 781.9453-140.9883 781.7266-140.5937 781.5078-140.2031 781.2852-139.8125 781.0703-139.4219 780.8516-139.0391 780.6367-138.6562 780.4219-138.2773 780.2109-137.8984 779.9961-137.5195 779.7852-137.1367 779.5781-136.7617 779.3672-136.3867 779.1602-136.0117 778.9531-135.6328 778.7461-135.2578 778.5391-134.8789 778.332-134.5039 778.1289-134.1289 777.9219-133.75 777.7148-133.3633 777.5078-132.9766 777.2969-132.5859 777.0859-132.1875 776.8711-131.7852 776.6602-131.3828 776.4453-130.9766 776.2266-130.5586 776.0039-130.1367 775.7852-129.7187 775.5664-129.3008 775.3516-128.8828 775.1328-128.4648 774.918-128.0508 774.7031-127.6367 774.4922-127.2227 774.2812-126.8125 774.0742-126.3984 773.8633-125.9844 773.6562-125.5781 773.4492-125.168 773.2461-124.7617 773.0391-124.3594 772.832-123.9492 772.6172-123.5352 772.3984-123.1172 772.1758-122.6914 771.9492-122.2656 771.7148-121.8281 771.4727-121.3828 771.2227-120.9297 770.9648-120.4766 770.707-120.0234 770.4414-119.5664 770.168-119.1016 769.8906-118.6445 769.6133-118.1875 769.3359-117.7344 769.0586-117.2852 768.7812-116.8398 768.5039-116.4023 768.2266-115.9648 767.9531-115.5313 767.6836-115.1094 767.418-114.6914 767.1484-114.2734 766.8789-113.8516 766.6133-113.4414 766.3477-113.0313 766.082-112.625 765.8125-112.2109 765.5391-111.7891 765.2656-111.3789 764.9883-110.9609 764.707-110.5391 764.418-110.1172 764.1289-109.6914 763.832-109.2656 763.5273-108.8281 763.2187-108.3906 762.9023-107.9453 762.582-107.4961 762.25-107.0352 761.918-106.5703 761.582-106.1016 761.2422-105.6289 760.9062-105.1563 760.5703-104.6836 760.2305-104.207 759.8984-103.7344 759.5742-103.2617 759.2539-102.7969 758.9375-102.332 758.625-101.8711 758.3164-101.4141 758.0195-100.9648 757.7227-100.5156 757.5563-100.2617H756.7187V-98.9843L756.5156-98.6758 756.207-98.2031 755.8906-97.7305 755.5703-97.2539 755.2461-96.7734 754.9141-96.2852 754.5742-95.7969 754.2227-95.3008 753.8633-94.7969 753.5039-94.2969 753.1367-93.793 752.7656-93.2891 752.3906-92.7813 752.0156-92.2734 751.6406-91.7656 751.2617-91.2578 750.8828-90.75 750.5117-90.2461 750.1406-89.75 749.7734-89.2578 749.4062-88.7656 749.0508-88.2852 748.6953-87.8125 748.3437-87.3398 747.9961-86.8789 747.6484-86.418 747.3008-85.957 746.9531-85.5039 746.5977-85.043 746.2344-84.5859 745.8672-84.1289 745.4961-83.6719 745.1172-83.2148 744.7305-82.7539 744.3281-82.2852 743.918-81.8164 743.4883-81.3359 743.0508-80.8555 742.6016-80.3711 742.1484-79.8867 741.6914-79.4023 741.2305-78.918 740.7695-78.4375 740.3047-77.9609 739.8437-77.4844 739.3867-77.0195 738.9375-76.5625 738.4883-76.1055 738.043-75.6523 737.6094-75.207 737.1797-74.7695 736.7539-74.3359 736.3398-73.9063 735.9297-73.4805 735.5234-73.0586 735.1172-72.6328 734.7148-72.2109 734.3125-71.7813 733.9102-71.3477 733.5039-70.9102 733.1055-70.4727 732.6953-70.0234 732.2852-69.5664 731.8711-69.1016 731.4531-68.6289 731.0352-68.1523 730.6133-67.668 730.1953-67.1836 729.7812-66.707 729.3711-66.2266 728.957-65.7422 728.5469-65.2617 728.1328-64.7813 727.7227-64.3008 727.3203-63.832 726.9258-63.3672 726.5312-62.9102 726.1406-62.457 725.7539-62.0117 725.3711-61.5703 724.9844-61.1328 724.6055-60.7031 724.2187-60.2734 723.832-59.8438 723.4336-59.4141 723.0312-58.9805 722.6211-58.5469 722.1992-58.1055 721.7695-57.6602 721.3281-57.2148 720.875-56.7617 720.4141-56.3008 719.9453-55.8398 719.4727-55.375 718.9922-54.9102 718.5078-54.4453 718.0195-53.9805 717.5312-53.5156 717.043-53.0508 716.5586-52.5938 716.0742-52.1367 715.5977-51.6953 715.1328-51.2578 714.6719-50.832 714.2148-50.4141 713.7617-50.0039 713.3125-49.5938 712.8633-49.1992 712.4258-48.8125 711.9844-48.4258 711.5352-48.043 711.0859-47.6641 710.6328-47.2891 710.168-46.9102 709.7031-46.5391 709.2305-46.1641 708.7578-45.7891 708.2773-45.418 707.793-45.043 707.3047-44.6719 706.8203-44.3008 706.3359-43.9336 705.8555-43.5703 705.375-43.2109 704.8945-42.8477 704.4102-42.4844 703.9336-42.125 703.4609-41.7695 702.9844-41.4141 702.5117-41.0586 702.043-40.707 701.5703-40.3555 701.1016-40.0078 700.6289-39.6563 700.1484-39.3047 699.668-38.9492 699.1797-38.5898 698.6836-38.2266 698.1836-37.8594 697.6797-37.4961 697.1719-37.1211 696.6523-36.7461 696.1328-36.3672 695.5977-35.9805 695.0625-35.5938 694.5156-35.1992 693.9687-34.8047 693.418-34.4141 692.8711-34.0273 692.332-33.6484 691.7969-33.2734 691.2656-32.9063 690.7383-32.5469 690.2227-32.1992 689.7187-31.8594 689.2227-31.5352 688.7266-31.2148 688.2344-30.9023 687.7422-30.5977 687.2578-30.2969 686.7773-30.0078 686.2969-29.7227 685.8203-29.4453 685.3516-29.1758 684.8789-28.9063 684.4062-28.6406 683.9375-28.3828 683.4727-28.1289 683.0078-27.875 682.543-27.6289 682.0742-27.3828 681.6055-27.1367 681.1406-26.8945 680.668-26.6563 680.1875-26.4141 679.7148-26.1758 679.2344-25.9375 678.7422-25.6953 678.2539-25.4531 677.7617-25.2109 677.2656-24.9688 676.7656-24.7266 676.2695-24.4844 675.7695-24.2383 675.2656-23.9922 674.7656-23.75 674.2656-23.5078 673.7656-23.2656 673.2734-23.0273 672.7812-22.793 672.293-22.5625 671.8047-22.332 671.3164-22.1055 670.832-21.8867 670.3516-21.668 669.8672-21.4531 669.3789-21.2422 668.8906-21.0273 668.3945-20.8164 667.8984-20.6055 667.4023-20.3906 666.8984-20.1758 666.3945-19.9648 665.8984-19.7539 665.4023-19.543 664.9102-19.332 664.418-19.125 663.9375-18.918 663.457-18.7148 662.9805-18.5156 662.5117-18.3164 662.043-18.1211 661.5781-17.9297 661.1094-17.7422 660.6367-17.5547 660.1562-17.3672 659.6758-17.1836 659.1836-17 658.6836-16.8164 658.1641-16.6289 657.6328-16.4375 657.0859-16.2422 656.5195-16.043 655.9414-15.8398 655.3555-15.6289 654.7578-15.4102 654.1523-15.1875 653.543-14.957 652.9336-14.7227 652.3281-14.4844 651.7266-14.2461 651.1289-14 650.5391-13.7578 649.9609-13.5117 649.3867-13.2656 648.8164-13.0195 648.25-12.7695 647.6836-12.5234 647.1211-12.2734 646.5625-12.0273 646-11.7812 645.4258-11.5312 644.8359-11.2773 644.2422-11.0234 643.6406-10.7656 643.0234-10.5039 642.3984-10.2422 641.7656-9.9805 641.1172-9.7148 640.4609-9.4453 639.8008-9.1758 639.125-8.9062 638.4492-8.6367 637.7617-8.3672 637.0625-8.1016 636.3555-7.832 635.6484-7.5703 634.9453-7.3086 634.2422-7.0508 633.5391-6.7969 632.8398-6.5469 632.1484-6.3008 631.4609-6.0586 630.7852-5.8164 630.125-5.5859 629.4687-5.3516 628.8242-5.125 628.1914-4.8984 627.5703-4.6758 626.9609-4.4531 626.3633-4.2344 625.7812-4.0195 625.2109-3.8086 624.6641-3.6016 624.1328-3.3984 623.6172-3.1992 623.1133-3.0078 622.625-2.8164 622.1406-2.625 621.668-2.4414 621.2031-2.2578 620.7383-2.0742 620.2812-1.8906 619.8281-1.7109 619.3711-1.5313 618.9141-1.3477 618.457-1.1641 617.9961-.9805 617.5391-.8008 617.0781-.6172 616.6211-.4336 616.168-.2539 615.7543-.0898H1.0859C.9023-.0312 .707 0 .5039 0 .332 0 .1641 0 0 0ZM-627.3516-1039.2969C-627.375-1022.8398-627.4102-1006.375-627.4414-989.918-627.5156-954.6406-627.5781-919.3555-627.6445-884.0781-627.7187-844.9297-627.7969-805.7852-627.8672-766.6367-627.9453-726.0664-628.0234-685.5039-628.1016-644.9336-628.1758-604.2539-628.2656-563.5703-628.332-522.8906-628.3984-483.0547-628.4883-443.2187-628.5625-403.3867-628.6406-362.1836-628.7187-320.9727-628.7969-279.7656-628.8711-242.5742-628.9297-205.3828-629.0078-168.1953-623.6758-168.2148-618.3437-168.2461-613.0156-168.2656-600.7812-168.3125-588.5469-168.3594-576.3164-168.4023-550.2383-168.5-524.1602-168.6016-498.0898-168.7031-471.6016-168.8164-445.1172-168.9062-418.625-169.0117-391.9453-169.125-365.2617-169.2305-338.5742-169.3203-311.2344-169.418-283.8906-169.5312-256.5508-169.6328-229.9102-169.7383-203.2773-169.8516-176.6406-169.9414-150.0352-170.0391-123.4258-170.1523-96.8203-170.25-75.3242-170.3281-53.8398-170.4141-32.3438-170.5-21.9453-170.5391-11.5469-170.5781-1.1484-170.625-.2734-170.625 .4727-169.9219 .5273-169.0508H630.2695V-891.5586C630.0234-891.8437 629.875-892.2148 629.875-892.6172 629.875-900.4219 629.793-908.2305 629.7734-916.0273 629.7461-924.0898 629.6875-932.1523 629.6602-940.2148 629.6328-947.9414 629.5898-955.6758 629.5547-963.4023 629.5234-971.3789 629.5078-979.3555 629.4492-987.332 629.3867-995.4766 629.3711-1003.6172 629.3398-1011.7656 629.3008-1019.9727 629.2656-1028.1758 629.2266-1036.3906 629.1875-1043.5977 629.168-1050.8086 629.1289-1058.0195 619.4062-1058.0274 609.6875-1058.0313 599.9609-1058.0391 552.6133-1058.0664 505.2656-1058.0977 457.9062-1058.125 408.0703-1058.1563 358.2187-1058.1914 308.3711-1058.2149 255.5742-1058.25 202.7773-1058.2695 149.9805-1058.3125 97.0117-1058.3516 44.0469-1058.3672-8.9219-1058.4063-61.4922-1058.4453-114.0664-1058.4727-166.6406-1058.5039-216.7383-1058.5313-266.8242-1058.5547-316.9219-1058.5899-366.2773-1058.6289-415.6133-1058.6563-464.9648-1058.6797-507.875-1058.707-550.793-1058.7344-593.7031-1058.7578-604.9023-1058.7656-616.1055-1058.7774-627.3047-1058.7774-627.3164-1052.2891-627.3359-1045.793-627.3516-1039.2969ZM574.8398-1413.0977C521.8086-1413.0899 468.7812-1413.0508 415.75-1413.0156 360.5625-1412.9766 305.375-1412.9649 250.1914-1412.9258 193.6875-1412.8867 137.1836-1412.8672 80.6797-1412.8399 24.3203-1412.8086-32.0391-1412.75-88.3984-1412.75-144.0352-1412.75-199.6719-1412.6953-255.3125-1412.6641-310.2812-1412.6289-365.2539-1412.6055-420.2266-1412.5703-472.3672-1412.5469-524.5156-1412.5391-576.6562-1412.4922-593.8984-1412.4805-611.1406-1412.4609-628.3867-1412.4609-628.3672-1411.4063-628.3437-1410.3516-628.3242-1409.2969-628.2461-1405.0859-628.168-1400.8828-628.1016-1396.6719-627.9648-1388.5195-627.8086-1380.3633-627.6641-1372.2031-627.5195-1363.875-627.3711-1355.5391-627.2187-1347.207-627.0703-1339.0859-626.9258-1330.9688-626.7812-1322.8477-626.6445-1315.0469-626.5039-1307.2422-626.3594-1299.4336-626.2187-1291.4258-626.0742-1283.418-625.9297-1275.4024-625.793-1267.3047-625.6328-1259.207-625.4961-1251.1094-625.3906-1244.7852-625.2695-1238.457-625.1562-1232.1328-610.7031-1232.1133-596.2578-1232.082-581.8086-1232.0547-554.4961-1232.0274-527.1875-1231.9883-499.8711-1231.9492-442.7656-1231.8828-385.668-1231.8047-328.5625-1231.7266-271.1211-1231.6602-213.6836-1231.5938-156.2422-1231.5039-98.1328-1231.4258-40.0195-1231.3477 18.0938-1231.2813 75.375-1231.2149 132.6562-1231.1367 189.9414-1231.0586 246.9609-1230.9922 303.9883-1230.9141 361.0078-1230.8359 417.3984-1230.7578 473.793-1230.6914 530.1836-1230.625 563.8242-1230.582 597.4609-1230.5352 631.1016-1230.4883 631.0156-1238.0938 630.9492-1245.6875 630.8711-1253.293 630.793-1261.7383 630.7031-1270.1953 630.6172-1278.6406 630.5312-1287.2461 630.4336-1295.8477 630.3555-1304.4492 630.2773-1312.9531 630.1836-1321.4531 630.0977-1329.9531 630.0156-1338.5313 629.9141-1347.1094 629.8359-1355.6875 629.7656-1364.1836 629.668-1372.6758 629.582-1381.1719 629.5039-1389.4922 629.4062-1397.8125 629.332-1406.1289 629.3125-1408.4649 629.2891-1410.8047 629.2617-1413.1367 611.1211-1413.1133 592.9805-1413.1016 574.8398-1413.0977Z"/>
<path transform="matrix(1,0,0,1,1051.275,1935.0879)" d="M0 0C.0078 0 .0078-.0078 .0156-.0078 10.0781-.0078 20.1367-.0586 30.2109-.0781 31.8516-.082 33.4883-.0859 35.1289-.0898 45.5156-.1133 55.9063-.1367 66.293-.1719 83.2852-.2148 100.2773-.2539 117.2656-.2969 126.6602-.3203 136.0508-.3437 145.4453-.3672 171.9414-.4219 198.4414-.4844 224.9375-.5625 252.5937-.6289 280.25-.6953 307.8984-.7617 335.3125-.8242 362.7187-.8906 390.1328-.9688 417.1484-1.0352 444.1602-1.1016 471.1758-1.168 496.9648-1.2305 522.7539-1.2852 548.543-1.3633 574.7617-1.4414 600.9844-1.4805 627.207-1.5586 635.4766-1.5742 643.7422-1.5938 652.0117-1.6172 652.9492-1.0898 654.1602-1.1602 655.3086-1.2305 655.832-1.2617 656.3437-1.293 656.8086-1.2656 659.9141-1.6836 663.1094-1.5547 666.293-1.4297 669.4375-1.3086 672.5703-1.1836 675.582-1.5781 683.1719-3.0586 690.918-4.918 698.0195-8.0234 704.6602-10.4531 711.4102-12.668 717.4883-16.3789 736.2305-26.918 752.0781-42.1094 765.2031-58.9922 771.207-66.3203 776.4727-74.3164 781.1406-82.5078 789.8398-96.2148 795.5234-111.7969 798.2812-127.7891 798.9531-134.2969 799.0156-140.832 798.8555-147.3633 798.8516-153.3281 799.582-159.3906 798.8437-165.3047 798.3008-167.1133 800.1719-169.8516 798.4766-170.9766 798.4687-201.4414 798.4375-231.9023 798.4102-262.3672 798.3789-309.6602 798.3516-356.9648 798.3203-404.2578 798.2812-454.1602 798.2461-504.0547 798.2148-553.9531 798.1836-605.7773 798.1484-657.6055 798.1094-709.4336 798.0781-760.0234 798.0508-810.6133 798.0117-861.2031 797.9648-910.5352 797.9414-959.8672 797.9062-1009.1992 797.8828-1056.9336 797.8477-1104.6602 797.8164-1152.3867 797.7773-1199.4492 797.7578-1246.5 797.7187-1293.5586 797.6914-1327.7383 797.6641-1361.9219 797.6523-1396.1094 797.6445-1400.3711 797.6445-1404.6328 797.6445-1408.8984 797.8437-1408.9375 798.043-1409.0039 798.2266-1409.1133 799.0781-1409.6133 799.1562-1410.582 799.2031-1411.4649 799.2305-1412.0938 799.2383-1412.7305 799.2383-1413.3594 799.2578-1416.1524 799.25-1418.9492 799.25-1421.7383 799.25-1424.3672 799.25-1426.9922 799.25-1429.625 799.25-1430.9922 799.2773-1432.3672 799.1523-1433.7383 799.0352-1435.0586 798.7187-1436.375 798.4883-1437.6797 798.2812-1438.8906 798.1367-1440.1094 797.9609-1441.3203 797.7773-1442.6172 797.5-1443.8945 797.2734-1444.9609 797.0352-1446.1602 796.8125-1447.3594 796.6289-1448.5625 796.4453-1449.7813 796.3086-1451.0117 796.0664-1452.1992 795.5117-1454.8789 794.7578-1457.5039 794.1406-1460.168 793.5195-1462.8594 793.0078-1465.5703 792.1055-1468.1914 792.0742-1468.2969 792.0391-1468.3945 792-1468.4922 791.9727-1468.5781 791.9492-1468.6563 791.9219-1468.7422 791.9102-1468.7813 791.8945-1468.8242 791.875-1468.8633 791.8555-1468.9258 791.8359-1468.9844 791.8086-1469.0352 791.7969-1469.0742 791.7852-1469.1133 791.7695-1469.1524 791.75-1469.2188 791.7305-1469.2774 791.707-1469.3438 791.6914-1469.3828 791.6719-1469.4297 791.668-1469.4414 791.0977-1471.0938 790.3516-1472.6953 789.5703-1474.2617 788.7734-1475.8672 787.9609-1477.4688 787.1484-1479.0742 786.0664-1481.2422 784.9609-1483.3984 783.957-1485.3672 783.2656-1486.7813 782.5703-1488.1992 781.9102-1489.625 781.2734-1490.9922 780.6523-1492.3672 779.9961-1493.7383 779.3555-1495.0938 778.6328-1496.418 777.7969-1497.668 776.8984-1498.9961 775.9766-1500.3047 775.0664-1501.6211 774.2539-1502.8594 773.4531-1504.1055 772.7461-1505.1524 772.6406-1505.3164 772.5312-1505.4805 772.4258-1505.6367 772.3555-1505.7344 772.2891-1505.832 772.2539-1505.8867 772.1836-1505.9961 772.1133-1506.1016 772.0391-1506.207 770.9609-1507.8047 769.7227-1509.2656 768.4375-1510.6914 767.8164-1511.3789 767.1523-1512.0234 766.5117-1512.6914 765.8125-1513.418 765.1172-1514.1563 764.4375-1514.9024 762.6758-1516.9258 761.0195-1519.0274 759.3164-1521.0977 757.5078-1523.3008 755.6211-1525.4063 753.6562-1527.4688 752.6797-1528.4922 751.625-1529.4492 750.625-1530.4492 749.6758-1531.3945 748.7852-1532.3828 747.8594-1533.3594 745.9766-1535.3555 744.0352-1537.3203 742.0703-1539.25 741.043-1540.2539 740.0078-1541.2539 739.0156-1542.2891 738.0195-1543.3242 737.0508-1544.3789 736.0586-1545.4219 734.1875-1547.4063 732.3359-1549.4414 730.25-1551.2109 729.6875-1551.6875 729.125-1552.1524 728.5508-1552.6055 727.9727-1553.0625 727.375-1553.4805 726.7812-1553.9063 725.6211-1554.7383 724.3789-1555.4531 723.1797-1556.207 720.8984-1557.6406 718.6016-1559.0547 716.3359-1560.5039 715.0273-1561.3477 713.7148-1562.1719 712.418-1563.0234 710.2695-1564.543 708.1953-1566.168 706.1211-1567.7734 704.9609-1568.6641 703.8086-1569.5859 702.5781-1570.3633 701.4219-1571.1055 700.2461-1571.7656 699.0352-1572.4024 697.7617-1573.0625 696.4922-1573.7109 695.2031-1574.332 693.9961-1574.9102 692.7734-1575.4649 691.5625-1576.0352 689.0586-1577.2266 686.5117-1578.3945 683.8789-1579.293 683.0469-1579.5742 682.1914-1579.7891 681.3398-1580.0195 680.4609-1580.2539 679.582-1580.4961 678.707-1580.7109 676.9766-1581.1445 675.2227-1581.457 673.4727-1581.8047 671.8047-1582.1875 670.1602-1582.6524 668.4883-1583.0313 666.7461-1583.4297 664.9453-1583.4805 663.1797-1583.6992 661.3711-1583.9141 659.5898-1584.2617 657.7812-1584.457 656.0352-1584.6484 654.2773-1584.7149 652.5234-1584.8047 651.1953-1584.9219 649.8789-1585.1016 648.5547-1585.2774 647.2383-1585.4649 645.9414-1585.6953 644.6133-1585.7695 642.0195-1585.9063 639.4062-1585.8477 636.8047-1585.8477 634.2187-1585.8477 631.6406-1585.8477 629.0547-1585.8477 626.4844-1585.8477 623.9062-1585.9258 621.3398-1585.7422 620.9336-1585.7149 620.5312-1585.6836 620.1328-1585.6563 617.6719-1585.5195 615.2031-1585.5899 612.7383-1585.5117 611.4687-1585.4727 610.1992-1585.4141 608.9297-1585.3945 607.7031-1585.375 606.4805-1585.375 605.2539-1585.375 602.8516-1585.375 600.4531-1585.375 598.0508-1585.375 596.832-1585.375 595.6094-1585.3867 594.3906-1585.3477 593.1211-1585.3086 591.8555-1585.2109 590.6719-1585.1328 589.457-1585.0547 588.2461-1585.0078 587.0352-1584.9961 586.6641-1584.9961 586.2812-1584.9961 585.9102-1584.9961 585.0781-1584.9961 584.2461-1585 583.4453-1584.9492 583.3086-1584.9414 583.1719-1584.9375 583.0625-1584.9219 581.6797-1584.8399 580.3047-1584.6211 578.9219-1584.5156 577.1797-1584.4375 575.4375-1584.4375 573.6875-1584.4453 571.7461-1584.4453 569.8008-1584.4531 567.8477-1584.3399 565.9023-1584.2344 563.8984-1584.1094 562-1583.6133 560.1133-1583.1211 558.2656-1582.5195 556.5703-1582.1602 554.7969-1581.8242 553-1581.5117 551.4219-1581.3984 550.0039-1581.3281 548.5742-1581.3477 547.1484-1581.3477 545.5312-1581.3477 543.9102-1581.3399 542.293-1581.3555 540.7617-1581.3594 539.2227-1581.418 537.6914-1581.418 537.4687-1581.4258 537.2461-1581.418 537.0234-1581.418 537.0234-1589.3438 537.0234-1597.2734 537.0234-1605.1992 537.0234-1614.7734 537.0234-1624.3399 537.0234-1633.9141 537.0234-1643.1758 537.0234-1652.4336 537.0234-1661.6953 537.0234-1671.3086 537.0234-1680.9297 537.0234-1690.543 537.0234-1699.9649 537.0234-1709.3906 537.0234-1718.8125 537.0234-1727.4102 537.0234-1736.0156 537.0234-1744.6211 537.0234-1749.6797 537.0234-1754.7344 537.0234-1759.7891 537.0234-1761.5508 537.0234-1763.3047 537.0234-1765.0625 537.0234-1765.3945 536.9258-1765.7109 536.7461-1765.9727 536.6289-1766.7774 535.9102-1767.3945 535.0859-1767.3945 534.9414-1767.3945 534.7891-1767.3945 534.6445-1767.3984 534.5977-1767.3984 534.5547-1767.3984 534.5078-1767.3945 527.2969-1767.3984 520.0937-1767.4453 512.8828-1767.4453 505.3789-1767.4453 497.8789-1767.4766 490.3828-1767.4961 482.8164-1767.5156 475.2461-1767.5352 467.6836-1767.5508 460.375-1767.5625 453.0742-1767.582 445.7656-1767.6016 438.1406-1767.6133 430.5195-1767.6367 422.8984-1767.6563 415.4102-1767.668 407.9258-1767.6797 400.4414-1767.6992 393.2891-1767.7188 386.1367-1767.7383 378.9883-1767.7539 372.1055-1767.7578 365.2227-1767.7852 358.3398-1767.7969 356.8242-1767.8047 355.3047-1767.7969 353.793-1767.8125 353.7852-1767.8125 353.7812-1767.8125 353.7656-1767.8125 353.7422-1767.8125 353.707-1767.8125 353.6836-1767.8125 352.9102-1767.8125 352.25-1767.25 352.0703-1766.5234 351.4102-1766.293 350.9531-1765.6524 350.9375-1764.9219 350.9375-1756.2461 350.9102-1747.5703 350.8906-1738.8984 350.8711-1729.5 350.8711-1720.1094 350.8477-1710.7188 350.8125-1700.8828 350.8125-1691.0391 350.793-1681.2031 350.7734-1671.4531 350.7422-1661.7031 350.7422-1651.9492 350.7422-1642.2188 350.7109-1632.4883 350.6875-1622.75 350.6641-1613.3008 350.6367-1603.8438 350.6367-1594.3945 350.6367-1590.1836 350.625-1585.9727 350.6172-1581.7617 329.125-1581.8438 307.625-1581.9297 286.1328-1582.0078 252.5703-1582.1445 219.0078-1582.2852 185.4453-1582.4102 151.8359-1582.5313 118.2344-1582.6719 84.625-1582.8086 49.5352-1582.9531 14.4492-1583.082-20.6328-1583.2188-54.2422-1583.3594-87.8438-1583.4961-121.4453-1583.6211-155.2695-1583.75-189.0977-1583.8945-222.9258-1584.0274-255.7187-1584.1524-288.5117-1584.2891-321.3086-1584.4141-332.168-1584.457-343.0312-1584.4961-353.8906-1584.543-353.8906-1592.2188-353.8906-1599.8867-353.8906-1607.5625-353.8906-1617.1367-353.8906-1626.7031-353.8906-1636.2774-353.8906-1645.5391-353.8906-1654.8008-353.8906-1664.0586-353.8906-1673.6719-353.8906-1683.293-353.8906-1692.9063-353.8906-1702.332-353.8906-1711.7539-353.8906-1721.1758-353.8906-1729.7774-353.8906-1738.3828-353.8906-1746.9883-353.8906-1752.043-353.8906-1757.0977-353.8906-1762.1524-353.8906-1763.9141-353.8906-1765.6719-353.8906-1767.4258-353.8906-1767.7539-353.9883-1768.0586-354.1523-1768.3242-354.2695-1769.1328-354.9922-1769.7578-355.8203-1769.7578-355.9648-1769.7578-356.1172-1769.7578-356.2617-1769.7617-356.3125-1769.7617-356.3594-1769.7617-356.4062-1769.7578-363.6133-1769.7617-370.8203-1769.8086-378.0234-1769.8086-385.5273-1769.8086-393.0273-1769.8399-400.5234-1769.8633-408.0859-1769.8828-415.6602-1769.9024-423.2227-1769.9141-430.5312-1769.9258-437.832-1769.9453-445.1406-1769.9649-452.7656-1769.9805-460.3867-1770-468.0078-1770.0195-475.4961-1770.0313-482.9805-1770.043-490.4648-1770.0664-497.6172-1770.0859-504.7695-1770.1055-511.918-1770.1172-518.8008-1770.125-525.6836-1770.1484-532.5664-1770.1641-534.0859-1770.168-535.6016-1770.1641-537.1172-1770.1758-537.125-1770.1758-537.1328-1770.1758-537.1406-1770.1758-537.1641-1770.1758-537.1992-1770.1758-537.2227-1770.1758-537.9961-1770.1758-538.6562-1769.6133-538.8359-1768.8867-539.4961-1768.6563-539.9609-1768.0156-539.9727-1767.2891-539.9727-1758.6094-540-1749.9336-540.0195-1741.2617-540.0391-1731.8672-540.0391-1722.4727-540.0664-1713.082-540.0977-1703.2461-540.0977-1693.4024-540.1172-1683.5664-540.1367-1673.8164-540.1719-1664.0664-540.1719-1654.3125-540.1719-1644.582-540.2031-1634.8516-540.2227-1625.1133-540.25-1615.6641-540.2773-1606.207-540.2773-1596.7578-540.2773-1592.2695-540.2891-1587.7852-540.3008-1583.3008-542.6445-1583.2656-544.9961-1583.2539-547.3477-1583.3399-553.4727-1584.3203-559.6523-1584.9219-565.8359-1585.375-567.8711-1585.5-570.0547-1584.6289-572.043-1584.4727-575.0625-1584.3125-578.0937-1584.3984-581.0859-1584.5899-586.7383-1585.5078-592.5156-1585-598.1406-1585.9453-604.3359-1587.1563-610.7461-1586.6641-617.0273-1587.1094-623.1172-1586.875-629.4062-1586.168-635.418-1586.8086-643.7539-1588.3672-651.8867-1586.3555-660.1719-1585.625-668.5859-1584.8516-677.0273-1583.5469-685.2812-1581.7227-690.9883-1579.5352-696.6758-1577.2734-702.3906-1575.0742-711.207-1571.6602-718.1016-1564.9805-726.0312-1560.0313-733.7344-1553.6914-742.3789-1548.375-749.1094-1540.9531-756.3516-1533.1406-762.4375-1524.3086-770.2031-1516.9805-773.3359-1513.2539-775.3437-1509.2109-778.6445-1505.75-782.2266-1501.3086-784.8984-1496.1524-787.9648-1491.3789-790.4258-1488.1524-793.2227-1484.9414-793.6367-1480.7383-794.5586-1476.6172-796.1719-1472.5586-796.418-1468.3281-797.7148-1459.7305-799.4648-1451.3203-801.0703-1442.8086-802.5234-1429.4297-801.4492-1415.8477-800.9492-1402.5195-800.2773-1390.8477-800.4531-1379.3281-800.2227-1367.6719-800.7148-1357.7461-800.9844-1347.8555-800.8398-1337.9141-800.8281-1330.3047-801.1094-1322.668-800.0273-1315.125-799.6797-1308.3555-800.2227-1301.3945-799.6523-1294.6875-798.7305-1282.6758-800.0273-1270.6211-799.5703-1258.6211-799.3984-1246.3242-798.2344-1234.1094-798.5-1221.832-798.4766-1203.6836-798.5469-1185.5391-798.4766-1167.3984-798.1953-1156.0664-797.7344-1144.7266-798.3242-1133.4102-798.1406-1120.4102-798.9062-1107.4609-799.1953-1094.5039-799.125-1073.4024-799.0234-1052.3203-799.3086-1031.2344-798.9062-1001.9609-801.6133-972.5156-799.2305-943.3281-799.0469-941.043-798.8281-938.7578-798.5742-936.4727-798.1797-924.7383-797.5859-912.8594-798.7422-901.207-799.2969-899.4648-798.9297-897.4922-799.2305-895.75-799.3008-895.3398-799.4062-894.9414-799.5742-894.5625-799.5742-894.3594-799.5742-894.1484-799.5742-893.9453-799.5742-893.4336-799.5742-892.918-799.582-892.3984-799.5898-892.0156-799.5937-891.6289-799.6094-891.2422-799.6094-891.0234-799.6133-890.8086-799.6211-890.5937-799.4922-890.5937-799.3594-890.5937-799.2305-890.5937V-184.1241L-799.0078-183.5156-798.7852-182.8867-798.5703-182.2734-798.3633-181.668-798.1641-181.0742-797.9727-180.4844-797.7852-179.9023-797.6016-179.3203-797.4219-178.7422-797.2422-178.1602-797.0664-177.5781-796.8945-176.9961-796.7227-176.418-796.5547-175.8477-796.3867-175.2852-796.2227-174.7227-796.0547-174.1641-795.8945-173.6211-795.7305-173.082-795.5703-172.5547-795.4102-172.0391-795.2578-171.543-795.1055-171.0586-794.9531-170.5859-794.8047-170.1328-794.6641-169.6953-794.5195-169.2695-794.3789-168.8555-794.2422-168.4531-794.1016-168.0625-793.9648-167.6836-793.8242-167.3086-793.6797-166.9336-793.5312-166.5664-793.3789-166.1953-793.2227-165.8203-793.0586-165.4453-792.8906-165.0703-792.7187-164.6875-792.5352-164.2969-792.3477-163.8984-792.1523-163.4883-791.9492-163.0664-791.7383-162.625-791.5195-162.168-791.2969-161.6992-791.0664-161.2227-790.8359-160.7305-790.6016-160.2305-790.3672-159.7227-790.1367-159.2109-789.9062-158.7031-789.6836-158.1953-789.4609-157.6836-789.2422-157.1797-789.0312-156.6836-788.8242-156.1914-788.6211-155.7031-788.4219-155.2227-788.2266-154.75-788.0312-154.2773-787.8359-153.8047-787.6445-153.332-787.457-152.8672-787.2695-152.4062-787.0781-151.9414-786.8906-151.4805-786.7031-151.0273-786.5195-150.5742-786.3359-150.1289-786.1484-149.6797-785.9648-149.2422-785.7812-148.8047-785.5937-148.3633-785.4062-147.9297-785.2187-147.5-785.0273-147.0742-784.8398-146.6523-784.6445-146.2344-784.4531-145.8203-784.2578-145.4102-784.0586-145-783.8594-144.5937-783.6562-144.1875-783.4492-143.7812-783.2422-143.3789-783.0312-142.9844-782.8242-142.5898-782.6094-142.1914-782.3906-141.793-782.168-141.3906-781.9453-140.9883-781.7266-140.5937-781.5078-140.2031-781.2852-139.8125-781.0703-139.4219-780.8516-139.0391-780.6367-138.6562-780.4219-138.2773-780.2109-137.8984-779.9961-137.5195-779.7852-137.1367-779.5781-136.7617-779.3672-136.3867-779.1602-136.0117-778.9531-135.6328-778.7461-135.2578-778.5391-134.8789-778.332-134.5039-778.1289-134.1289-777.9219-133.75-777.7148-133.3633-777.5078-132.9766-777.2969-132.5859-777.0859-132.1875-776.8711-131.7852-776.6602-131.3828-776.4453-130.9766-776.2266-130.5586-776.0039-130.1367-775.7852-129.7187-775.5664-129.3008-775.3516-128.8828-775.1328-128.4648-774.918-128.0508-774.7031-127.6367-774.4922-127.2227-774.2812-126.8125-774.0742-126.3984-773.8633-125.9844-773.6562-125.5781-773.4492-125.168-773.2461-124.7617-773.0391-124.3594-772.832-123.9492-772.6172-123.5352-772.3984-123.1172-772.1758-122.6914-771.9492-122.2656-771.7148-121.8281-771.4727-121.3828-771.2227-120.9297-770.9648-120.4766-770.707-120.0234-770.4414-119.5664-770.168-119.1016-769.8906-118.6445-769.6133-118.1875-769.3359-117.7344-769.0586-117.2852-768.7812-116.8398-768.5039-116.4023-768.2266-115.9648-767.9531-115.5313-767.6836-115.1094-767.418-114.6914-767.1484-114.2734-766.8789-113.8516-766.6133-113.4414-766.3477-113.0313-766.082-112.625-765.8125-112.2109-765.5391-111.7891-765.2656-111.3789-764.9883-110.9609-764.707-110.5391-764.418-110.1172-764.1289-109.6914-763.832-109.2656-763.5273-108.8281-763.2187-108.3906-762.9023-107.9453-762.582-107.4961-762.25-107.0352-761.918-106.5703-761.582-106.1016-761.2422-105.6289-760.9062-105.1563-760.5703-104.6836-760.2305-104.207-759.8984-103.7344-759.5742-103.2617-759.2539-102.7969-758.9375-102.332-758.625-101.8711-758.3164-101.4141-758.0195-100.9648-757.7227-100.5156-757.5563-100.2617H-756.7187V-98.9843L-756.5156-98.6758-756.207-98.2031-755.8906-97.7305-755.5703-97.2539-755.2461-96.7734-754.9141-96.2852-754.5742-95.7969-754.2227-95.3008-753.8633-94.7969-753.5039-94.2969-753.1367-93.793-752.7656-93.2891-752.3906-92.7813-752.0156-92.2734-751.6406-91.7656-751.2617-91.2578-750.8828-90.75-750.5117-90.2461-750.1406-89.75-749.7734-89.2578-749.4062-88.7656-749.0508-88.2852-748.6953-87.8125-748.3437-87.3398-747.9961-86.8789-747.6484-86.418-747.3008-85.957-746.9531-85.5039-746.5977-85.043-746.2344-84.5859-745.8672-84.1289-745.4961-83.6719-745.1172-83.2148-744.7305-82.7539-744.3281-82.2852-743.918-81.8164-743.4883-81.3359-743.0508-80.8555-742.6016-80.3711-742.1484-79.8867-741.6914-79.4023-741.2305-78.918-740.7695-78.4375-740.3047-77.9609-739.8437-77.4844-739.3867-77.0195-738.9375-76.5625-738.4883-76.1055-738.043-75.6523-737.6094-75.207-737.1797-74.7695-736.7539-74.3359-736.3398-73.9063-735.9297-73.4805-735.5234-73.0586-735.1172-72.6328-734.7148-72.2109-734.3125-71.7813-733.9102-71.3477-733.5039-70.9102-733.1055-70.4727-732.6953-70.0234-732.2852-69.5664-731.8711-69.1016-731.4531-68.6289-731.0352-68.1523-730.6133-67.668-730.1953-67.1836-729.7812-66.707-729.3711-66.2266-728.957-65.7422-728.5469-65.2617-728.1328-64.7813-727.7227-64.3008-727.3203-63.832-726.9258-63.3672-726.5312-62.9102-726.1406-62.457-725.7539-62.0117-725.3711-61.5703-724.9844-61.1328-724.6055-60.7031-724.2187-60.2734-723.832-59.8438-723.4336-59.4141-723.0312-58.9805-722.6211-58.5469-722.1992-58.1055-721.7695-57.6602-721.3281-57.2148-720.875-56.7617-720.4141-56.3008-719.9453-55.8398-719.4727-55.375-718.9922-54.9102-718.5078-54.4453-718.0195-53.9805-717.5312-53.5156-717.043-53.0508-716.5586-52.5938-716.0742-52.1367-715.5977-51.6953-715.1328-51.2578-714.6719-50.832-714.2148-50.4141-713.7617-50.0039-713.3125-49.5938-712.8633-49.1992-712.4258-48.8125-711.9844-48.4258-711.5352-48.043-711.0859-47.6641-710.6328-47.2891-710.168-46.9102-709.7031-46.5391-709.2305-46.1641-708.7578-45.7891-708.2773-45.418-707.793-45.043-707.3047-44.6719-706.8203-44.3008-706.3359-43.9336-705.8555-43.5703-705.375-43.2109-704.8945-42.8477-704.4102-42.4844-703.9336-42.125-703.4609-41.7695-702.9844-41.4141-702.5117-41.0586-702.043-40.707-701.5703-40.3555-701.1016-40.0078-700.6289-39.6563-700.1484-39.3047-699.668-38.9492-699.1797-38.5898-698.6836-38.2266-698.1836-37.8594-697.6797-37.4961-697.1719-37.1211-696.6523-36.7461-696.1328-36.3672-695.5977-35.9805-695.0625-35.5938-694.5156-35.1992-693.9687-34.8047-693.418-34.4141-692.8711-34.0273-692.332-33.6484-691.7969-33.2734-691.2656-32.9063-690.7383-32.5469-690.2227-32.1992-689.7187-31.8594-689.2227-31.5352-688.7266-31.2148-688.2344-30.9023-687.7422-30.5977-687.2578-30.2969-686.7773-30.0078-686.2969-29.7227-685.8203-29.4453-685.3516-29.1758-684.8789-28.9063-684.4062-28.6406-683.9375-28.3828-683.4727-28.1289-683.0078-27.875-682.543-27.6289-682.0742-27.3828-681.6055-27.1367-681.1406-26.8945-680.668-26.6563-680.1875-26.4141-679.7148-26.1758-679.2344-25.9375-678.7422-25.6953-678.2539-25.4531-677.7617-25.2109-677.2656-24.9688-676.7656-24.7266-676.2695-24.4844-675.7695-24.2383-675.2656-23.9922-674.7656-23.75-674.2656-23.5078-673.7656-23.2656-673.2734-23.0273-672.7812-22.793-672.293-22.5625-671.8047-22.332-671.3164-22.1055-670.832-21.8867-670.3516-21.668-669.8672-21.4531-669.3789-21.2422-668.8906-21.0273-668.3945-20.8164-667.8984-20.6055-667.4023-20.3906-666.8984-20.1758-666.3945-19.9648-665.8984-19.7539-665.4023-19.543-664.9102-19.332-664.418-19.125-663.9375-18.918-663.457-18.7148-662.9805-18.5156-662.5117-18.3164-662.043-18.1211-661.5781-17.9297-661.1094-17.7422-660.6367-17.5547-660.1562-17.3672-659.6758-17.1836-659.1836-17-658.6836-16.8164-658.1641-16.6289-657.6328-16.4375-657.0859-16.2422-656.5195-16.043-655.9414-15.8398-655.3555-15.6289-654.7578-15.4102-654.1523-15.1875-653.543-14.957-652.9336-14.7227-652.3281-14.4844-651.7266-14.2461-651.1289-14-650.5391-13.7578-649.9609-13.5117-649.3867-13.2656-648.8164-13.0195-648.25-12.7695-647.6836-12.5234-647.1211-12.2734-646.5625-12.0273-646-11.7812-645.4258-11.5312-644.8359-11.2773-644.2422-11.0234-643.6406-10.7656-643.0234-10.5039-642.3984-10.2422-641.7656-9.9805-641.1172-9.7148-640.4609-9.4453-639.8008-9.1758-639.125-8.9062-638.4492-8.6367-637.7617-8.3672-637.0625-8.1016-636.3555-7.832-635.6484-7.5703-634.9453-7.3086-634.2422-7.0508-633.5391-6.7969-632.8398-6.5469-632.1484-6.3008-631.4609-6.0586-630.7852-5.8164-630.125-5.5859-629.4687-5.3516-628.8242-5.125-628.1914-4.8984-627.5703-4.6758-626.9609-4.4531-626.3633-4.2344-625.7812-4.0195-625.2109-3.8086-624.6641-3.6016-624.1328-3.3984-623.6172-3.1992-623.1133-3.0078-622.625-2.8164-622.1406-2.625-621.668-2.4414-621.2031-2.2578-620.7383-2.0742-620.2812-1.8906-619.8281-1.7109-619.3711-1.5313-618.9141-1.3477-618.457-1.1641-617.9961-.9805-617.5391-.8008-617.0781-.6172-616.6211-.4336-616.168-.2539-615.7543-.0898H-1.0859C-.9023-.0312-.707 0-.5039 0-.332 0-.1641 0 0 0ZM627.3516-1039.2969C627.375-1022.8398 627.4102-1006.375 627.4414-989.918 627.5156-954.6406 627.5781-919.3555 627.6445-884.0781 627.7187-844.9297 627.7969-805.7852 627.8672-766.6367 627.9453-726.0664 628.0234-685.5039 628.1016-644.9336 628.1758-604.2539 628.2656-563.5703 628.332-522.8906 628.3984-483.0547 628.4883-443.2187 628.5625-403.3867 628.6406-362.1836 628.7187-320.9727 628.7969-279.7656 628.8711-242.5742 628.9297-205.3828 629.0078-168.1953 623.6758-168.2148 618.3437-168.2461 613.0156-168.2656 600.7812-168.3125 588.5469-168.3594 576.3164-168.4023 550.2383-168.5 524.1602-168.6016 498.0898-168.7031 471.6016-168.8164 445.1172-168.9062 418.625-169.0117 391.9453-169.125 365.2617-169.2305 338.5742-169.3203 311.2344-169.418 283.8906-169.5312 256.5508-169.6328 229.9102-169.7383 203.2773-169.8516 176.6406-169.9414 150.0352-170.0391 123.4258-170.1523 96.8203-170.25 75.3242-170.3281 53.8398-170.4141 32.3438-170.5 21.9453-170.5391 11.5469-170.5781 1.1484-170.625 .2734-170.625-.4727-169.9219-.5273-169.0508H-630.2695V-891.5586C-630.0234-891.8437-629.875-892.2148-629.875-892.6172-629.875-900.4219-629.793-908.2305-629.7734-916.0273-629.7461-924.0898-629.6875-932.1523-629.6602-940.2148-629.6328-947.9414-629.5898-955.6758-629.5547-963.4023-629.5234-971.3789-629.5078-979.3555-629.4492-987.332-629.3867-995.4766-629.3711-1003.6172-629.3398-1011.7656-629.3008-1019.9727-629.2656-1028.1758-629.2266-1036.3906-629.1875-1043.5977-629.168-1050.8086-629.1289-1058.0195-619.4062-1058.0274-609.6875-1058.0313-599.9609-1058.0391-552.6133-1058.0664-505.2656-1058.0977-457.9062-1058.125-408.0703-1058.1563-358.2187-1058.1914-308.3711-1058.2149-255.5742-1058.25-202.7773-1058.2695-149.9805-1058.3125-97.0117-1058.3516-44.0469-1058.3672 8.9219-1058.4063 61.4922-1058.4453 114.0664-1058.4727 166.6406-1058.5039 216.7383-1058.5313 266.8242-1058.5547 316.9219-1058.5899 366.2773-1058.6289 415.6133-1058.6563 464.9648-1058.6797 507.875-1058.707 550.793-1058.7344 593.7031-1058.7578 604.9023-1058.7656 616.1055-1058.7774 627.3047-1058.7774 627.3164-1052.2891 627.3359-1045.793 627.3516-1039.2969ZM-574.8398-1413.0977C-521.8086-1413.0899-468.7812-1413.0508-415.75-1413.0156-360.5625-1412.9766-305.375-1412.9649-250.1914-1412.9258-193.6875-1412.8867-137.1836-1412.8672-80.6797-1412.8399-24.3203-1412.8086 32.0391-1412.75 88.3984-1412.75 144.0352-1412.75 199.6719-1412.6953 255.3125-1412.6641 310.2812-1412.6289 365.2539-1412.6055 420.2266-1412.5703 472.3672-1412.5469 524.5156-1412.5391 576.6562-1412.4922 593.8984-1412.4805 611.1406-1412.4609 628.3867-1412.4609 628.3672-1411.4063 628.3437-1410.3516 628.3242-1409.2969 628.2461-1405.0859 628.168-1400.8828 628.1016-1396.6719 627.9648-1388.5195 627.8086-1380.3633 627.6641-1372.2031 627.5195-1363.875 627.3711-1355.5391 627.2187-1347.207 627.0703-1339.0859 626.9258-1330.9688 626.7812-1322.8477 626.6445-1315.0469 626.5039-1307.2422 626.3594-1299.4336 626.2187-1291.4258 626.0742-1283.418 625.9297-1275.4024 625.793-1267.3047 625.6328-1259.207 625.4961-1251.1094 625.3906-1244.7852 625.2695-1238.457 625.1562-1232.1328 610.7031-1232.1133 596.2578-1232.082 581.8086-1232.0547 554.4961-1232.0274 527.1875-1231.9883 499.8711-1231.9492 442.7656-1231.8828 385.668-1231.8047 328.5625-1231.7266 271.1211-1231.6602 213.6836-1231.5938 156.2422-1231.5039 98.1328-1231.4258 40.0195-1231.3477-18.0938-1231.2813-75.375-1231.2149-132.6562-1231.1367-189.9414-1231.0586-246.9609-1230.9922-303.9883-1230.9141-361.0078-1230.8359-417.3984-1230.7578-473.793-1230.6914-530.1836-1230.625-563.8242-1230.582-597.4609-1230.5352-631.1016-1230.4883-631.0156-1238.0938-630.9492-1245.6875-630.8711-1253.293-630.793-1261.7383-630.7031-1270.1953-630.6172-1278.6406-630.5312-1287.2461-630.4336-1295.8477-630.3555-1304.4492-630.2773-1312.9531-630.1836-1321.4531-630.0977-1329.9531-630.0156-1338.5313-629.9141-1347.1094-629.8359-1355.6875-629.7656-1364.1836-629.668-1372.6758-629.582-1381.1719-629.5039-1389.4922-629.4062-1397.8125-629.332-1406.1289-629.3125-1408.4649-629.2891-1410.8047-629.2617-1413.1367-611.1211-1413.1133-592.9805-1413.1016-574.8398-1413.0977Z"/>
<path transform="matrix(1,0,0,1,1488.0609,1130.393)" d="M0 0V447.0078H-447.0078V0H0Z"/>
</g>
</svg>
